<?xml version="1.0" encoding="UTF-8"?>
<svg width="348px" height="219px" viewBox="0 0 348 219" version="1.1" xmlns="http://www.w3.org/2000/svg" xmlns:xlink="http://www.w3.org/1999/xlink">
    <!-- Generator: Sketch 53.2 (72643) - https://sketchapp.com -->
    <title>404</title>
    <desc>Created with Sketch.</desc>
    <defs>
        <polygon id="path-1" points="0.178 0.4771 123.345 0.4771 123.345 113 0.178 113"></polygon>
        <polygon id="path-3" points="92.4519 0.776 126.7559 0.776 126.7559 38.4089 92.4519 38.4089"></polygon>
        <polygon id="path-5" points="0.178 0.4771 123.345 0.4771 123.345 113 0.178 113"></polygon>
        <polygon id="path-7" points="92.4519 0.776 126.7559 0.776 126.7559 38.4089 92.4519 38.4089"></polygon>
    </defs>
    <g id="Finalized" stroke="none" stroke-width="1" fill="none" fill-rule="evenodd">
        <g id="homeFinal-Copy" transform="translate(-456.000000, -284.000000)">
            <g id="aboveFold">
                <g id="404" transform="translate(456.000000, 283.000000)">
                    <g id="Group-48">
                        <g id="Group-18" transform="translate(220.000000, 79.224000)">
                            <polygon id="Fill-1" fill="#EAEAEA" points="47.8827 131.1923 44.2937 104.5703 56.0507 82.8283 59.6397 109.4503"></polygon>
                            <polygon id="Fill-3" fill="#F4F4F4" points="94.1888 99.8017 90.5998 73.1797 109.9328 80.1117 113.5218 106.7327"></polygon>
                            <polygon id="Fill-5" fill="#F4F4F4" points="36.1981 79.0126 32.6091 52.3906 66.0311 64.3726 69.6201 90.9936"></polygon>
                            <polygon id="Fill-7" fill="#F4F4F4" points="4.1781 89.5673 0.5891 62.9453 12.7681 40.4213 16.3581 67.0433"></polygon>
                            <polygon id="Fill-9" fill="#EAEAEA" points="69.62 90.9941 66.031 64.3721 87.011 25.5761 90.6 52.1971"></polygon>
                            <polygon id="Fill-11" fill="#F4F4F4" points="16.3578 67.0434 12.7688 40.4214 93.0408 0.8554 96.6298 27.4774"></polygon>
                            <g id="Group-15" transform="translate(4.000000, 27.000000)">
                                <mask id="mask-2" fill="white">
                                    <use xlink:href="#path-1"></use>
                                </mask>
                                <g id="Clip-14"></g>
                                <path d="M65.62,63.9941 L86.6,25.1971 L32.198,52.0131 L65.62,63.9941 L65.62,63.9941 Z M90.189,72.8021 L109.522,79.7321 L99.542,98.1881 L80.209,91.2581 L68.452,113.0001 L43.883,104.1921 L55.64,82.4501 L0.178,62.5671 L12.358,40.0431 L92.63,0.4771 L123.345,11.4881 L90.189,72.8021 Z" id="Fill-13" fill="#FFFFFF" mask="url(#mask-2)"></path>
                            </g>
                            <polygon id="Fill-16" fill="#F4F4F4" points="96.6298 27.4775 93.0408 0.8555 123.7548 11.8665 127.3448 38.4885"></polygon>
                        </g>
                        <g id="Group-29" transform="translate(115.000000, 33.224000)">
                            <path d="M30.9462,103.3578 L27.3572,76.7358 C27.3772,76.8858 27.3992,77.0348 27.4222,77.1838 C28.3342,83.4848 32.1582,88.7808 40.6462,91.8228 C49.3202,94.9328 56.3332,93.5228 62.6572,89.8158 L66.2472,116.4378 C59.9232,120.1448 52.9092,121.5548 44.2352,118.4448 C35.7472,115.4018 31.9232,110.1078 31.0112,103.8058 C30.9882,103.6568 30.9672,103.5078 30.9462,103.3578" id="Fill-19" fill="#EAEAEA"></path>
                            <path d="M90.705,39.0722 L94.294,65.6942 C95.324,73.3292 92.243,82.7222 86.705,92.9652 C80.953,103.6002 74.242,112.0262 66.247,116.4372 L62.658,89.8152 C70.653,85.4042 77.364,76.9782 83.115,66.3432 C88.654,56.1012 91.735,46.7072 90.705,39.0722" id="Fill-21" fill="#EAEAEA"></path>
                            <path d="M117.3339,36.8481 L120.9229,63.4701 C120.8579,62.9831 120.7829,62.4961 120.7009,62.0111 L117.1109,35.3891 C117.1939,35.8751 117.2689,36.3611 117.3339,36.8481" id="Fill-23" fill="#231F20"></path>
                            <path d="M4.2562,105.1757 L0.6672,78.5537 C-1.0668,65.6927 3.3592,52.6877 10.1242,40.1767 C17.1472,27.1907 26.3472,15.3627 39.9662,7.7327 C53.1432,0.5077 69.5992,-1.9963 87.8422,4.5437 C106.0942,11.0867 114.9302,22.6577 117.1112,35.3887 L120.7002,62.0107 C118.5192,49.2797 109.6832,37.7087 91.4322,31.1657 C73.1882,24.6257 56.7322,27.1297 43.5552,34.3547 C29.9372,41.9847 20.7362,53.8127 13.7142,66.7987 C6.9482,79.3087 2.5222,92.3147 4.2562,105.1757" id="Fill-25" fill="#F4F4F4"></path>
                            <path d="M66.2469,116.4374 C74.2419,112.0264 80.9529,103.6004 86.7049,92.9654 C92.4549,82.3294 95.5569,72.6094 94.1579,64.8224 C93.2459,58.5214 89.7879,53.3574 81.1129,50.2474 C72.6259,47.2044 65.2469,48.4834 58.9229,52.1914 C51.1109,56.6764 44.3999,65.1024 38.6479,75.7374 C32.8969,86.3734 29.7959,96.0924 31.0119,103.8054 C31.9229,110.1074 35.7469,115.4024 44.2349,118.4454 C52.9099,121.5554 59.9229,120.1454 66.2469,116.4374 M120.7009,62.0104 C122.9759,75.3384 118.6529,88.9144 111.6309,101.9004 C104.6119,114.8804 95.2319,126.6434 81.6219,134.2764 C68.6159,141.5634 52.1679,144.0704 33.9159,137.5274 C15.6729,130.9874 6.8289,119.4134 4.4769,106.6214 C2.1939,93.2904 6.6949,79.7774 13.7139,66.7984 C20.7369,53.8124 29.9369,41.9844 43.5559,34.3544 C56.7319,27.1294 73.1879,24.6254 91.4319,31.1654 C109.6839,37.7084 118.5189,49.2794 120.7009,62.0104" id="Fill-27" fill="#FFFFFF"></path>
                        </g>
                        <g id="Group-47" transform="translate(0.000000, 0.224000)">
                            <polygon id="Fill-30" fill="#EAEAEA" points="47.2943 131.1132 43.7053 104.4912 55.4623 82.7492 59.0513 109.3702"></polygon>
                            <polygon id="Fill-32" fill="#F4F4F4" points="93.6 99.7231 90.011 73.1011 109.344 80.0321 112.933 106.6541"></polygon>
                            <polygon id="Fill-34" fill="#F4F4F4" points="35.6093 78.9335 32.0203 52.3115 65.4423 64.2935 69.0313 90.9155"></polygon>
                            <path d="M3.5892,89.4877 L0.0002,62.8657 L12.1802,40.3417 L15.7692,66.9647 L3.5892,89.4877 Z M15.7694,66.9643 L12.1804,40.3423 L92.4514,0.7763 L96.0404,27.3983 L15.7694,66.9643 Z M96.0409,27.3979 L92.4519,0.7759 L123.1659,11.7869 L126.7559,38.4089 L96.0409,27.3979 Z" id="Combined-Shape" fill="#F4F4F4"></path>
                            <polygon id="Fill-38" fill="#F4F4F4" points="69.0316 90.9155 65.4426 64.2935 86.4216 25.4965 90.0106 52.1185"></polygon>
                            <path d="M69.0316,90.9155 L90.0106,52.1185 L35.6096,78.9335 L69.0316,90.9155 L69.0316,90.9155 Z M93.5996,99.7235 L112.9326,106.6535 L102.9526,125.1085 L83.6196,118.1785 L71.8626,139.9205 L47.2946,131.1135 L59.0516,109.3705 L3.5896,89.4875 L15.7696,66.9645 L96.0406,27.3975 L126.7556,38.4095 L93.5996,99.7235 Z" id="Fill-42" fill="#FFFFFF"></path>
                            <mask id="mask-4" fill="white">
                                <use xlink:href="#path-3"></use>
                            </mask>
                            <g id="Clip-45"></g>
                        </g>
                    </g>
                    <g id="Group-48">
                        <g id="Group-18" transform="translate(220.000000, 79.224000)">
                            <polygon id="Fill-1" fill="#E1E1E1" points="47.8827 131.1923 44.2937 104.5703 56.0507 82.8283 59.6397 109.4503"></polygon>
                            <polygon id="Fill-3" fill="#EAEAEA" points="94.1888 99.8017 90.5998 73.1797 109.9328 80.1117 113.5218 106.7327"></polygon>
                            <polygon id="Fill-5" fill="#EAEAEA" points="36.1981 79.0126 32.6091 52.3906 66.0311 64.3726 69.6201 90.9936"></polygon>
                            <polygon id="Fill-7" fill="#E1E1E1" points="4.1781 89.5673 0.5891 62.9453 12.7681 40.4213 16.3581 67.0433"></polygon>
                            <polygon id="Fill-9" fill="#E1E1E1" points="69.62 90.9941 66.031 64.3721 87.011 25.5761 90.6 52.1971"></polygon>
                            <polygon id="Fill-11" fill="#EAEAEA" points="16.3578 67.0434 12.7688 40.4214 93.0408 0.8554 96.6298 27.4774"></polygon>
                            <g id="Group-15" transform="translate(4.000000, 27.000000)">
                                <mask id="mask-6" fill="white">
                                    <use xlink:href="#path-5"></use>
                                </mask>
                                <g id="Clip-14"></g>
                                <path d="M65.62,63.9941 L86.6,25.1971 L32.198,52.0131 L65.62,63.9941 L65.62,63.9941 Z M90.189,72.8021 L109.522,79.7321 L99.542,98.1881 L80.209,91.2581 L68.452,113.0001 L43.883,104.1921 L55.64,82.4501 L0.178,62.5671 L12.358,40.0431 L92.63,0.4771 L123.345,11.4881 L90.189,72.8021 Z" id="Fill-13" fill="#FFFFFF" mask="url(#mask-6)"></path>
                            </g>
                            <polygon id="Fill-16" fill="#EAEAEA" points="96.6298 27.4775 93.0408 0.8555 123.7548 11.8665 127.3448 38.4885"></polygon>
                        </g>
                        <g id="Group-29" transform="translate(115.000000, 33.224000)">
                            <path d="M65.8195879,113.2668 L62.658,89.8152 C70.653,85.4042 77.364,76.9782 83.115,66.3432 C88.654,56.1012 91.735,46.7072 90.705,39.0722 L94.294,65.6942 C95.324,73.3292 92.243,82.7222 86.705,92.9652 C80.9530266,103.600151 74.242062,112.026122 66.2471108,116.437139 C59.9232,120.1448 52.9092,121.5548 44.2352,118.4448 C35.7472,115.4018 31.9232,110.1078 31.0112,103.8058 C30.9882,103.6568 30.9672,103.5078 30.9462,103.3578 L27.3572,76.7358 C27.3772,76.8858 27.3992,77.0348 27.4222,77.1838 C28.3342,83.4848 32.1582,88.7808 40.6462,91.8228 C49.3202,94.9328 56.3332,93.5228 62.6572,89.8158 L65.8195879,113.2668 Z" id="Combined-Shape" fill="#EAEAEA"></path>
                            <path d="M117.3339,36.8481 L120.9229,63.4701 C120.8579,62.9831 120.7829,62.4961 120.7009,62.0111 L117.1109,35.3891 C117.1939,35.8751 117.2689,36.3611 117.3339,36.8481" id="Fill-23" fill="#231F20"></path>
                            <path d="M4.2562,105.1757 L0.6672,78.5537 C-1.0668,65.6927 3.3592,52.6877 10.1242,40.1767 C17.1472,27.1907 26.3472,15.3627 39.9662,7.7327 C53.1432,0.5077 69.5992,-1.9963 87.8422,4.5437 C106.0942,11.0867 114.9302,22.6577 117.1112,35.3887 L120.7002,62.0107 C118.5192,49.2797 109.6832,37.7087 91.4322,31.1657 C73.1882,24.6257 56.7322,27.1297 43.5552,34.3547 C29.9372,41.9847 20.7362,53.8127 13.7142,66.7987 C6.9482,79.3087 2.5222,92.3147 4.2562,105.1757" id="Fill-25" fill="#EAEAEA"></path>
                            <path d="M66.2469,116.4374 C74.2419,112.0264 80.9529,103.6004 86.7049,92.9654 C92.4549,82.3294 95.5569,72.6094 94.1579,64.8224 C93.2459,58.5214 89.7879,53.3574 81.1129,50.2474 C72.6259,47.2044 65.2469,48.4834 58.9229,52.1914 C51.1109,56.6764 44.3999,65.1024 38.6479,75.7374 C32.8969,86.3734 29.7959,96.0924 31.0119,103.8054 C31.9229,110.1074 35.7469,115.4024 44.2349,118.4454 C52.9099,121.5554 59.9229,120.1454 66.2469,116.4374 M120.7009,62.0104 C122.9759,75.3384 118.6529,88.9144 111.6309,101.9004 C104.6119,114.8804 95.2319,126.6434 81.6219,134.2764 C68.6159,141.5634 52.1679,144.0704 33.9159,137.5274 C15.6729,130.9874 6.8289,119.4134 4.4769,106.6214 C2.1939,93.2904 6.6949,79.7774 13.7139,66.7984 C20.7369,53.8124 29.9369,41.9844 43.5559,34.3544 C56.7319,27.1294 73.1879,24.6254 91.4319,31.1654 C109.6839,37.7084 118.5189,49.2794 120.7009,62.0104" id="Fill-27" fill="#FFFFFF"></path>
                        </g>
                        <g id="Group-47" transform="translate(0.000000, 0.224000)">
                            <polygon id="Fill-30" fill="#E1E1E1" points="47.2943 131.1132 43.7053 104.4912 55.4623 82.7492 59.0513 109.3702"></polygon>
                            <polygon id="Fill-32" fill="#EAEAEA" points="93.6 99.7231 90.011 73.1011 109.344 80.0321 112.933 106.6541"></polygon>
                            <polygon id="Fill-38" fill="#E1E1E1" points="69.0316 90.9155 65.4426 64.2935 86.4216 25.4965 90.0106 52.1185"></polygon>
                            <polygon id="Fill-34" fill="#EAEAEA" points="35.6093 78.9335 32.0203 52.3115 65.4423 64.2935 69.0313 90.9155"></polygon>
                            <path d="M15.7694,66.9643 L12.1804,40.3423 L92.4514,0.7763 L96.0404,27.3983 L15.7694,66.9643 Z M96.0409,27.3979 L92.4519,0.7759 L123.1659,11.7869 L126.7559,38.4089 L96.0409,27.3979 Z" id="Combined-Shape" fill="#EAEAEA"></path>
                            <path d="M69.0316,90.9155 L90.0106,52.1185 L35.6096,78.9335 L69.0316,90.9155 L69.0316,90.9155 Z M93.5996,99.7235 L112.9326,106.6535 L102.9526,125.1085 L83.6196,118.1785 L71.8626,139.9205 L47.2946,131.1135 L59.0516,109.3705 L3.5896,89.4875 L15.7696,66.9645 L96.0406,27.3975 L126.7556,38.4095 L93.5996,99.7235 Z" id="Fill-42" fill="#FFFFFF"></path>
                            <polygon id="Fill-36" fill="#E1E1E1" points="3.5892 89.4877 0.0002 62.8657 12.1802 40.3417 15.7692 66.9647"></polygon>
                            <mask id="mask-8" fill="white">
                                <use xlink:href="#path-7"></use>
                            </mask>
                            <g id="Clip-45"></g>
                        </g>
                    </g>
                </g>
            </g>
        </g>
    </g>
</svg>