<?xml version="1.0" encoding="UTF-8"?>
<svg width="55px" height="55px" viewBox="0 0 55 55" version="1.1" xmlns="http://www.w3.org/2000/svg" xmlns:xlink="http://www.w3.org/1999/xlink">
    <!-- Generator: Sketch 55 (78076) - https://sketchapp.com -->
    <title>download</title>
    <desc>Created with Sketch.</desc>
    <g id="Finalized" stroke="none" stroke-width="1" fill="none" fill-rule="evenodd">
        <g id="homeFinal-Copy" transform="translate(-229.000000, -103.000000)" fill-rule="nonzero">
            <g id="download" transform="translate(229.000000, 103.000000)">
                <circle id="Oval" fill="#FFFFFF" cx="27.5" cy="27.5" r="27.5"></circle>
                <path d="M26.4466097,31.6098489 L26.4466097,31.9185582 L28.5679302,31.9185582 L28.5679302,31.6239663 L29.0000005,32.0435048 L27.5000004,33.4999991 L25.6538464,31.7073907 L21.5,27.6740218 L23.0000001,26.2175275 L26.4466097,29.5641722 L26.4466097,17.5 L28.5679302,17.5 L28.5679302,21.9364795 L28.5679302,29.5500549 L31.9999999,26.2175284 L33.5,27.6740227 L31.653846,29.4666311 L27.4999996,33.5 L25.9999995,32.0435057 L26.4466097,31.6098489 Z M19.5714656,35.5 L35.4285344,35.5 L35.4285344,31.5 L37.5,31.5 L37.5,35.5 L37.5,37.5 L17.5,37.5 L17.5,35.5 L17.5,31.5 L19.5714656,31.5 L19.5714656,35.5 Z" id="Combined-Shape" fill="#333333"></path>
            </g>
        </g>
    </g>
</svg>