<?xml version="1.0" encoding="UTF-8"?>
<svg width="40px" height="40px" viewBox="0 0 40 40" version="1.1" xmlns="http://www.w3.org/2000/svg" xmlns:xlink="http://www.w3.org/1999/xlink">
    <!-- Generator: Sketch 55 (78076) - https://sketchapp.com -->
    <title>Combined Shape</title>
    <desc>Created with Sketch.</desc>
    <g id="Finalized" stroke="none" stroke-width="1" fill="none" fill-rule="evenodd">
        <path d="M17.9707433,28.0455522 L17.9707433,28.6591607 L22.0649091,28.6591607 L22.0649091,28.0736127 L22.8988082,28.9075118 L20.0037958,31.8025242 L16.4407035,28.2394319 L8.42374616,20.2224745 L11.3187586,17.3274621 L17.9707433,23.9794469 L17.9707433,1.27897692e-12 L22.0649091,1.27897692e-12 L22.0649091,8.81820343 L22.0649091,23.9513864 L28.6888316,17.3274639 L31.583844,20.2224763 L28.0207518,23.7855685 L20.0037944,31.8025259 L17.108782,28.9075135 L17.9707433,28.0455522 Z M4.14293112,35.9058342 L35.8570689,35.9058342 L35.8570689,27.7175026 L40,27.7175026 L40,35.9058342 L40,40 L6.53699317e-13,40 L6.53699317e-13,35.9058342 L0,27.7175026 L4.14293112,27.7175026 L4.14293112,35.9058342 Z" id="Combined-Shape" fill="#333333" fill-rule="nonzero"></path>
    </g>
</svg>