<?xml version="1.0" encoding="UTF-8"?>
<svg width="12px" height="12px" viewBox="0 0 12 12" version="1.1" xmlns="http://www.w3.org/2000/svg" xmlns:xlink="http://www.w3.org/1999/xlink">
    <!-- Generator: Sketch 53 (72520) - https://sketchapp.com -->
    <title>Combined Shape</title>
    <desc>Created with Sketch.</desc>
    <g id="Finalized" stroke="none" stroke-width="1" fill="none" fill-rule="evenodd">
        <path d="M7.52268072,9.06747485 L7.52268072,9.07106781 L1.07106781,9.07106781 L1.07106781,2.61945491 L1.07466078,2.61945491 C1.07227438,2.56600608 1.07106781,2.51223328 1.07106781,2.45816459 C1.07106781,0.587522692 2.51531055,-0.928932188 4.29687426,-0.928932188 C6.07843797,-0.928932188 7.52268072,0.587522692 7.52268072,2.45816459 C7.52268072,2.51223328 7.52147415,2.56600608 7.51908775,2.61945491 L7.52268072,2.61945491 L7.52268072,2.62304787 C7.57612955,2.62066147 7.62990234,2.61945491 7.68397104,2.61945491 C9.55461293,2.61945491 11.0710678,4.06369765 11.0710678,5.84526136 C11.0710678,7.62682507 9.55461293,9.07106781 7.68397104,9.07106781 C7.62990234,9.07106781 7.57612955,9.06986125 7.52268072,9.06747485 Z" id="Combined-Shape" fill="#F66263" transform="translate(6.071068, 4.071068) rotate(-45.000000) translate(-6.071068, -4.071068) "></path>
    </g>
</svg>