<?xml version="1.0" encoding="UTF-8"?>
<svg width="250px" height="246px" viewBox="0 0 250 246" version="1.1" xmlns="http://www.w3.org/2000/svg" xmlns:xlink="http://www.w3.org/1999/xlink">
    <!-- Generator: Sketch 53.2 (72643) - https://sketchapp.com -->
    <title>Group 11</title>
    <desc>Created with Sketch.</desc>
    <defs>
        <linearGradient x1="50%" y1="-36.9195751%" x2="50%" y2="100%" id="linearGradient-1">
            <stop stop-color="#8F94FB" offset="0%"></stop>
            <stop stop-color="#4E54C8" offset="100%"></stop>
        </linearGradient>
        <path d="M8,0 L242,0 C246.418278,-8.11624501e-16 250,3.581722 250,8 L250,246 L0,246 L0,8 C-5.41083001e-16,3.581722 3.581722,8.11624501e-16 8,0 Z" id="path-2"></path>
        <polygon id="path-4" points="0 0.284476804 138.58366 0.284476804 138.58366 114.720147 0 114.720147"></polygon>
        <polygon id="path-6" points="0 0.0479561856 90.4943807 0.0479561856 90.4943807 52.4778789 0 52.4778789"></polygon>
        <polygon id="path-8" points="0.505769547 0.23575 25.6065226 0.23575 25.6065226 16.16325 0.505769547 16.16325"></polygon>
    </defs>
    <g id="Finalized" stroke="none" stroke-width="1" fill="none" fill-rule="evenodd">
        <g id="Group-11">
            <mask id="mask-3" fill="white">
                <use xlink:href="#path-2"></use>
            </mask>
            <use id="Mask" fill="url(#linearGradient-1)" fill-rule="nonzero" xlink:href="#path-2"></use>
            <g mask="url(#mask-3)" id="Group-13">
                <g transform="translate(29.000000, 41.000000)">
                    <g>
                        <g id="Group-16">
                            <g id="Group-12">
                                <path d="M139.228946,173.513305 L195.608824,202.357412 C155.822059,255.134869 109.004963,282.440271 84.0844669,269.690921 L20.4613051,237.141354 C45.3818015,249.890244 92.1984375,222.584843 131.985202,169.807385 L139.228946,173.513305 L131.985524,169.807523 C176.850414,110.294326 196.049403,40.5808216 174.782399,14.4068481 C172.37523,11.4448315 169.551241,9.1649791 166.370634,7.53789121 L229.993796,40.086999 C233.174403,41.7140869 235.998392,43.9939393 238.405561,46.9568746 C259.672105,73.1303887 240.473575,142.844352 195.608686,202.35755 L139.228946,173.513305 Z" id="Combined-Shape" fill="#30323A"></path>
                                <path d="M5.59462316,165.526977 C13.8565717,135.243941 30.7039982,102.25935 53.0330423,72.6396439 C75.3597886,43.0236124 100.528447,20.2737816 123.902987,8.59062902 C141.911719,-0.409803814 157.226976,-2.04332289 168.296829,3.6202476 L231.919531,36.1693554 C220.849678,30.5062443 205.534421,32.139304 187.526149,41.1406556 C164.151149,52.8233488 138.982491,75.5731796 116.656204,105.188752 C94.3272555,134.808331 77.4798776,167.793226 69.2174314,198.076615 C60.8742188,228.658263 62.2588695,252.856487 73.1136489,266.21588 C75.6880974,269.384154 78.7193474,271.849592 82.1600643,273.609897 L18.5373621,241.060789 C15.0957261,239.300024 12.0649357,236.834127 9.49094669,233.666313 C-1.36429199,220.30692 -2.74894294,196.108238 5.59480631,165.527072 Z" id="Combined-Shape" fill="#202227"></path>
                                <path d="M195.202012,202.095687 C240.068371,142.58249 259.267529,72.8689856 238.000288,46.6950121 C216.732129,20.5205793 162.927518,47.6472858 118.061159,107.160942 C73.1947998,166.67414 53.9938034,236.385807 75.2624226,262.55978 C96.5301227,288.733753 150.335653,261.608884 195.202012,202.095687 M68.8067885,197.815279 C77.0690075,167.531783 93.9169857,134.546734 116.246761,104.927486 C138.573779,75.3114549 163.743721,52.5616241 187.119027,40.8789309 C210.725039,29.0800171 229.703601,29.9413355 240.558736,43.3002692 C251.41525,56.6610403 252.799946,80.8611017 244.456382,111.44181 C236.192325,141.722549 219.343887,174.713571 197.016869,204.329143 C174.687094,233.94885 149.518071,256.692709 126.143684,268.378158 C102.538132,280.177072 83.5595693,279.315294 72.7030557,265.954523 C61.8479209,252.59513 60.4627652,228.396447 68.8067885,197.815279" id="Fill-8" fill="#1A1C21"></path>
                            </g>
                            <g id="Group-90" transform="translate(4.000000, 5.000000)">
                                <g id="Group-69">
                                    <path d="M100.172556,6.05761628 L103.450772,17.5228101 C95.3583921,13.7649612 83.8031921,16.381938 77.6931856,23.3557364 L74.4155725,11.8905426 C80.525579,4.91674419 92.0801757,2.29916667 100.172556,6.05761628" id="Fill-5" fill="#FFFFFF"></path>
                                    <polygon id="Fill-9" fill="#FFFFFF" points="167.411043 37.2809244 170.689862 48.746719 103.450833 17.5226298 100.172616 6.05743605"></polygon>
                                    <path d="M180.104026,48.831188 C180.091357,48.8077578 180.090151,48.7813236 180.082911,48.7560911 C180.075069,48.7308585 180.06783,48.7062267 180.061193,48.6809942 C178.983134,44.9093275 177.904472,41.1376609 176.82581,37.3659942 C176.845718,37.3870213 176.865626,37.4086492 176.884931,37.4296764 L180.163148,48.8954709 C180.143239,48.873843 180.123934,48.8528159 180.104026,48.831188" id="Fill-19" fill="#202227"></path>
                                    <polygon id="Fill-21" fill="#FFFFFF" points="74.4153915 11.8905426 77.6936079 23.3557364 12.6281915 97.6265698 9.34997508 86.161376"></polygon>
                                    <path d="M174.308087,44.8264205 L177.586906,56.2922151 C176.694657,53.1741919 174.357555,50.4496764 170.689621,48.7464787 L167.410801,37.2806841 C171.078736,38.9844826 173.416441,41.7083973 174.308087,44.8264205" id="Fill-23" fill="#FFFFFF"></path>
                                    <polygon id="Fill-25" fill="#202227" points="163.09205 49.0546764 166.370266 60.5204709 91.0859121 25.5607616 87.8076957 14.0949671"></polygon>
                                    <polygon id="Fill-27" fill="#202227" points="87.8076957 14.0947267 91.0859121 25.5605213 20.663381 105.946045 17.3857679 94.4808508"></polygon>
                                    <path d="M9.3313941,109.548773 L6.05257443,98.0829787 C4.97632525,94.3173198 6.00732852,89.976719 9.35009574,86.1611957 L12.6283121,97.6263895 C9.2861482,101.441913 8.25454164,105.783114 9.3313941,109.548773" id="Fill-29" fill="#FFFFFF"></path>
                                    <path d="M174.308087,44.8264205 L177.586906,56.2922151 C178.663155,60.0572733 177.632152,64.397874 174.289988,68.2127965 L171.011772,56.7470019 C174.353332,52.9320795 175.384939,48.5920795 174.308087,44.8264205" id="Fill-31" fill="#202227"></path>
                                    <path d="M9.3313941,109.548773 L6.05257443,98.0829787 C6.94422033,101.200401 9.28011541,103.923114 12.9456367,105.62511 L16.2238531,117.090905 C12.5589351,115.388909 10.2224367,112.665595 9.3313941,109.548773" id="Fill-39" fill="#202227"></path>
                                    <polygon id="Fill-41" fill="#202227" points="92.6698807 129.44068 95.948097 140.905874 20.663743 105.946165 17.3855266 94.4809709"></polygon>
                                    <polygon id="Fill-43" fill="#202227" points="163.09205 49.0546764 166.370266 60.5204709 95.9477351 140.905994 92.670122 129.4408"></polygon>
                                    <polygon id="Fill-45" fill="#202227" points="86.3275604 11.0878469 165.189047 47.6872457 91.4210245 131.843661 12.5595384 95.2442621"></polygon>
                                    <g id="Group-20" transform="translate(17.390000, 13.230000)">
                                        <g id="Group-3">
                                            <mask id="mask-5" fill="white">
                                                <use xlink:href="#path-4"></use>
                                            </mask>
                                            <g id="Clip-2"></g>
                                            <path d="M-0.000537037037,80.0067448 L15.5586193,62.2902242 L90.4943807,97.0042191 L138.58366,42.2458428 L119.847035,33.5663067 L101.115183,24.888549 L107.479669,17.6411778 L101.115183,24.888549 L63.6467058,7.53244072 L70.0111914,0.284476804 L-0.000537037037,80.0067448 Z M54.7426317,33.4240387 L56.8627346,31.010817 L112.127426,56.6113582 L110.00792,59.0251727 L54.7426317,33.4240387 Z M49.0846481,39.8670026 L51.2041543,37.4537809 L106.468846,63.0543222 L104.34934,65.4675438 L49.0846481,39.8670026 Z M43.4266646,46.3099665 L45.5491543,43.8925954 L73.6517058,56.9113067 L71.529216,59.3280851 L43.4266646,46.3099665 Z M119.847035,33.5663067 L126.211521,26.3183428 L119.847035,33.5663067 Z M-0.000537037037,80.0067448 L74.9364177,114.720147 L-0.000537037037,80.0067448 Z" id="Fill-1" fill="#F5F5F5" mask="url(#mask-5)"></path>
                                        </g>
                                        <g id="Group-6" transform="translate(0.000000, 62.242268)">
                                            <mask id="mask-7" fill="white">
                                                <use xlink:href="#path-6"></use>
                                            </mask>
                                            <g id="Clip-5"></g>
                                            <polygon id="Fill-4" fill="#8F94FB" mask="url(#mask-7)" points="-0.000537037037 17.7644768 74.9364177 52.4778789 90.4943807 34.761951 15.5586193 0.0479561856"></polygon>
                                        </g>
                                        <polygon id="Fill-7" fill="#8F94FB" points="63.6469444 7.53220361 101.115422 24.8889046 107.479907 17.6409407 70.01143 0.284239691"></polygon>
                                        <polygon id="Fill-9" fill="#7177E4" points="101.115481 24.8887268 119.847333 33.5664845 126.211819 26.3185206 107.479967 17.6407629"></polygon>
                                        <g id="Group-13" transform="translate(119.341564, 26.082474)">
                                            <mask id="mask-9" fill="white">
                                                <use xlink:href="#path-8"></use>
                                            </mask>
                                            <g id="Clip-12"></g>
                                            <polygon id="Fill-11" fill="#8F94FB" mask="url(#mask-9)" points="0.505769547 7.48371392 19.2417984 16.16325 25.6068807 8.91587887 6.87025514 0.23575"></polygon>
                                        </g>
                                        <polygon id="Fill-14" fill="#7177E4" points="54.7428704 33.4237423 110.007562 59.0248763 112.127665 56.6116546 56.8623765 31.0105206"></polygon>
                                        <polygon id="Fill-16" fill="#7177E4" points="49.0846481 39.866884 104.34934 65.4674253 106.468846 63.0547964 51.2041543 37.4536624"></polygon>
                                        <polygon id="Fill-18" fill="#7177E4" points="43.4264259 46.3100258 71.5289774 59.3281443 73.6520638 56.911366 45.5495123 43.8926546"></polygon>
                                    </g>
                                    <polygon id="Fill-47" fill="#202227" points="80.1842439 136.848839 83.4630636 148.314634 16.2240341 117.090545 12.9458177 105.62475"></polygon>
                                    <polygon id="Fill-49" fill="#202227" points="171.011832 56.7468818 174.290049 68.2126764 109.224632 142.48351 105.945812 131.017715"></polygon>
                                    <path d="M105.946114,131.017715 L109.224934,142.48351 C103.114927,149.457308 91.5591239,152.074285 83.4625207,148.314634 L80.1843043,136.848839 C88.2815108,140.609091 99.8361075,137.991514 105.946114,131.017715" id="Fill-55" fill="#202227"></path>
                                    <path d="M80.1056025,152.48876 L12.6493062,121.169988 L9.37108984,109.704795 L76.827903,141.023205 L77.6701907,143.969167 L76.8280236,141.023085 C77.1019121,141.146845 77.3764039,141.268202 77.655722,141.381748 C77.7999056,141.439422 77.9471056,141.490488 78.093099,141.54636 C78.3054531,141.626864 78.5172039,141.709771 78.7319711,141.784267 C78.8978728,141.841341 79.0673941,141.892407 79.2345023,141.946477 C79.4335843,142.01076 79.6308564,142.076244 79.8311449,142.13512 C80.006699,142.186787 80.1846662,142.232446 80.3614269,142.279907 C80.5580957,142.333376 80.7553679,142.387446 80.9544498,142.436109 C81.1348302,142.479965 81.3182269,142.519016 81.5010203,142.559868 C81.6982925,142.603124 81.8955646,142.646981 82.0940433,142.686031 C82.2810597,142.722678 82.4686793,142.75512 82.6569023,142.788163 C82.8541744,142.821806 83.0514466,142.85605 83.2505285,142.88669 C83.4411646,142.915527 83.6324039,142.94076 83.8236433,142.965391 C84.0233285,142.991225 84.2242203,143.015857 84.4251121,143.038085 C84.6151449,143.057911 84.8063843,143.075934 84.9976236,143.092155 C85.2015318,143.110779 85.40544,143.126399 85.6099515,143.140217 C85.8446269,143.155236 86.0799056,143.169054 86.5673548,143.189481 C86.9208761,143.200895 87.2750007,143.208105 87.6442072,143.206903 C87.9886793,143.205702 88.3331515,143.197291 88.9635777,143.172058 C89.2428957,143.159442 89.5222138,143.14262 90.0404302,143.105973 C90.3933482,143.077136 90.7462662,143.043492 91.2693089,142.982213 C91.5679318,142.946167 91.8665548,142.906516 92.4553548,142.818202 C92.7455318,142.772543 93.0345023,142.723279 93.5189351,142.635566 C93.8682334,142.568279 94.2163252,142.496186 94.8009023,142.362814 C95.0717744,142.299733 95.34144,142.233647 95.919381,142.083453 C96.2210203,142.002349 96.5214531,141.917039 96.9467646,141.790876 C97.2870138,141.688143 97.6248498,141.578202 98.2251121,141.372136 C98.4863318,141.281419 98.7463449,141.187097 99.2705941,140.988841 C99.6036039,140.860876 99.9354072,140.727504 100.302201,140.571302 C100.615906,140.43793 100.926594,140.297349 101.511774,140.023395 C101.759722,139.905043 102.005256,139.784287 102.486673,139.539171 C102.800378,139.37636 103.112273,139.209345 103.559906,138.954616 C103.822935,138.805023 104.081742,138.651225 104.593322,138.337019 C104.83584,138.185624 105.076548,138.031225 105.495827,137.753066 C105.786004,137.557213 106.071355,137.356554 106.542515,137.009306 C106.765125,136.844093 106.984719,136.675876 107.438384,136.316012 C107.67487,136.126167 107.907735,135.931516 108.245571,135.641341 C108.507394,135.412446 108.763788,135.178744 109.204181,134.758802 C109.398437,134.57136 109.589676,134.380314 109.978188,133.981399 C110.217022,133.730342 110.45224,133.476883 110.680222,133.21622 L175.746182,58.9451783 L175.794037,59.1125543 L175.746243,58.9453585 C175.976695,58.682219 176.196289,58.4172771 176.595056,57.9144283 C176.745875,57.7215795 176.892472,57.5275291 177.221862,57.0739438 C177.375095,56.8582655 177.522295,56.6419864 177.775069,56.2592926 C177.95183,55.9841376 178.120144,55.7083818 178.377744,55.2565988 C178.50021,55.0391182 178.619056,54.8210368 178.86459,54.3392151 C178.966544,54.1343508 179.063672,53.9288857 179.260341,53.4939244 C179.382807,53.2127616 179.499843,52.9309981 179.607226,52.6438275 C179.711593,52.3668702 179.805705,52.089312 179.96678,51.5756492 C180.030125,51.3659787 180.089849,51.1575097 180.206885,50.7039244 C180.266007,50.4624128 180.319698,50.2209012 180.390885,49.8640407 C180.444577,49.5804748 180.48922,49.2981105 180.547738,48.8331105 C180.573679,48.612626 180.595397,48.393343 180.628577,47.9271415 C180.640643,47.7150678 180.648485,47.5041957 180.655725,47.0890601 C180.656328,46.8090988 180.650295,46.5303391 180.633403,46.2413663 C180.618321,45.9728198 180.593587,45.7066764 180.535672,45.2242539 C180.509128,45.0223934 180.479567,44.8223353 180.402348,44.3861725 C180.357102,44.1512694 180.306426,43.9163663 180.22981,43.6003585 C180.203266,43.4934205 180.174911,43.3864826 180.141128,43.2681298 L183.419344,54.7333236 C183.453128,54.8522771 183.481482,54.9586143 183.50863,55.0661531 C183.584643,55.3815601 183.635318,55.6164632 183.680564,55.8519671 C183.75718,56.2881298 183.787948,56.488188 183.813889,56.6894477 C183.871803,57.1718702 183.897141,57.4386143 183.912223,57.7065601 C183.927908,57.9955329 183.934544,58.2748934 183.933941,58.5542539 C183.926702,58.9693895 183.919462,59.1808624 183.906793,59.392936 C183.873613,59.8585368 183.851895,60.0784205 183.825351,60.298905 C183.767436,60.7633043 183.722793,61.0462694 183.669705,61.3292345 C183.597311,61.6866957 183.544826,61.9282074 183.485102,62.1691182 C183.368066,62.6227035 183.308341,62.8317733 183.244997,63.0414438 C183.084525,63.5551066 182.990413,63.832064 182.886046,64.1090213 C182.777456,64.3967926 182.661626,64.6785562 182.539161,64.9585174 C182.341285,65.3946802 182.244157,65.6001453 182.142203,65.8050097 C181.896669,66.2868314 181.77903,66.5049128 181.655961,66.7217926 C181.398361,67.1735756 181.230649,67.4499322 181.053889,67.7244864 C180.801115,68.1071802 180.653915,68.3234593 180.500682,68.5397384 C180.171292,68.9927229 180.024092,69.1867733 179.873272,69.3796221 C179.474763,69.8827453 179.254594,70.14767 179.024304,70.4106414 L113.959164,144.681599 C113.731184,144.941942 113.495302,145.19607 113.256404,145.446593 C112.868496,145.846109 112.676653,146.037155 112.481794,146.223996 C112.042004,146.643938 111.78561,146.87824 111.523184,147.107136 C111.185951,147.396709 110.952483,147.59136 110.716601,147.781806 C110.263538,148.141671 110.043342,148.309287 109.820732,148.4745 C109.350174,148.821748 109.06422,149.023008 108.774043,149.21886 C108.354765,149.497019 108.114056,149.651419 107.872142,149.802213 C107.360561,150.117019 107.100548,150.270217 106.838725,150.41981 C106.390489,150.674539 106.078594,150.842155 105.764889,151.004965 C105.283473,151.249481 105.037335,151.370837 104.789991,151.488589 C104.205414,151.762543 103.894122,151.902523 103.579814,152.036496 C103.214227,152.193298 102.88182,152.32607 102.54881,152.454636 C102.023958,152.652891 101.764548,152.747213 101.502725,152.83793 C100.903066,153.043395 100.56523,153.153938 100.224981,153.256671 C99.7996695,153.382833 99.49984,153.467543 99.1975974,153.548647 C98.6196564,153.699442 98.3499908,153.765527 98.0791187,153.828609 C97.4945416,153.961981 97.1458466,154.034074 96.7965482,154.10076 C96.313322,154.189074 96.0237482,154.238337 95.7341744,154.283395 C95.1447711,154.37231 94.8467515,154.411961 94.5481285,154.448008 C94.0244826,154.508686 93.6715646,154.54293 93.3192498,154.571167 C92.7998269,154.607814 92.5205089,154.625236 92.2423974,154.637853 C91.6113679,154.662484 91.2662925,154.671496 90.9224236,154.672698 C90.553217,154.673899 90.1990925,154.66669 89.8455711,154.655275 C89.3575187,154.634849 89.1228433,154.621031 88.8887711,154.605411 C88.6836564,154.591593 88.4797482,154.575973 88.27584,154.55795 C88.0846007,154.541729 87.8939646,154.523705 87.7033285,154.503279 C87.5018334,154.48105 87.3021482,154.456419 87.1018597,154.431186 C86.9106203,154.405953 86.7187777,154.380721 86.5287449,154.351884 C86.3302662,154.321845 86.1323908,154.287601 85.9345154,154.253357 C85.7468957,154.220915 85.5586728,154.188473 85.372863,154.151826 C85.173781,154.112775 84.9771121,154.068919 84.7792367,154.025663 C84.5970466,153.98481 84.4130466,153.94576 84.232063,153.901903 C84.032981,153.85324 83.8369154,153.799171 83.6396433,153.745702 C83.4628826,153.69824 83.2849154,153.652581 83.1099646,153.600915 C82.9090728,153.541438 82.7118007,153.476554 82.513322,153.412271 C82.3450072,153.358202 82.1766925,153.307136 82.0107908,153.249461 C81.794817,153.174965 81.5836695,153.092659 81.3713154,153.011554 C81.2259252,152.956283 81.078122,152.904616 80.9339384,152.846942 C80.6546203,152.733996 80.3795252,152.612039 80.1056367,152.48888 Z M3.51011672,111.139866 L0.231297049,99.6746725 C0.274129836,99.8218624 0.329028197,100.002696 0.412883934,100.268839 C0.481054426,100.473703 0.553447869,100.676766 0.684962623,101.025816 C0.78269377,101.270932 0.887664262,101.514246 1.08855607,101.940196 C1.17784131,102.125835 1.27134951,102.310273 1.48129049,102.698975 C1.6055659,102.921862 1.73527082,103.142948 1.89453639,103.398878 C2.04113311,103.630777 2.1973823,103.858471 2.4887659,104.26039 C2.59614951,104.406378 2.70896262,104.549362 2.82177574,104.692948 C2.92915934,104.826921 3.03955934,104.960293 3.15176918,105.093064 C3.24829377,105.20601 3.3466282,105.318955 3.44737574,105.430099 C3.5644118,105.560467 3.68567082,105.688432 3.80873967,105.815797 C3.91552,105.926339 4.02230033,106.036281 4.13270033,106.145021 C4.25757902,106.266979 4.38788721,106.387134 4.51819541,106.506688 C4.63402492,106.613626 4.74985443,106.720564 4.87051016,106.824498 C5.00685115,106.943452 5.1498282,107.0588 5.29220197,107.17475 C5.41406426,107.273878 5.53532328,107.374207 5.66140852,107.472134 C5.81162492,107.586882 5.9678741,107.698025 6.12352,107.81037 C6.25141508,107.902289 6.37689705,107.99601 6.5084118,108.084924 C6.67491672,108.198471 6.84926426,108.307812 7.02180197,108.417754 C7.15150689,108.499459 7.27759213,108.584169 7.41031344,108.664072 C7.59974295,108.777618 7.7964118,108.885758 7.99308066,108.995099 C8.11795934,109.064789 8.23921836,109.137483 8.36711344,109.20537 C8.62772984,109.344149 8.89860197,109.475118 9.37096918,109.704614 L12.6491856,121.169808 C12.1762151,120.940913 11.9065495,120.809343 11.6447266,120.670564 C11.5168315,120.602676 11.3955725,120.530583 11.2706938,120.460893 C11.0752315,120.351552 10.8779593,120.242812 10.6885298,120.129266 C10.5558085,120.049362 10.4297233,119.964653 10.3006216,119.882948 C10.1274807,119.773006 9.95373639,119.664266 9.7866282,119.550719 C9.65511344,119.461804 9.53023475,119.367483 9.40233967,119.275564 C9.24669377,119.16382 9.08984131,119.052676 8.9402282,118.937328 C8.81353967,118.840002 8.69288393,118.739672 8.57041836,118.639944 C8.42744131,118.524595 8.28506754,118.409246 8.14812328,118.290293 C8.02807082,118.186359 7.91284459,118.07882 7.79580852,117.972483 C7.66610361,117.852928 7.53639869,117.732773 7.41091672,117.610215 C7.30051672,117.502076 7.19313311,117.391533 7.08695607,117.281591 C6.96449049,117.154227 6.8426282,117.026262 6.72498885,116.895893 C6.62424131,116.78475 6.52651016,116.671804 6.42998557,116.558258 C6.31777574,116.426087 6.20797902,116.292715 6.10059541,116.158742 C5.98657574,116.015157 5.8743659,115.871572 5.7669823,115.726184 C5.47620197,115.324266 5.31995279,115.096572 5.17335607,114.864672 C5.01288393,114.608742 4.88317902,114.387657 4.75890361,114.164169 C4.55016918,113.776068 4.4560577,113.591029 4.36677246,113.40539 C4.16588066,112.980041 4.06091016,112.736727 3.9637823,112.49101 C3.83166426,112.14256 3.75866754,111.939498 3.69110033,111.734033 C3.60664131,111.46789 3.55174295,111.287657 3.51011672,111.139866 Z" id="Combined-Shape" fill="#F5F5F5"></path>
                                    <path d="M92.6698807,129.44068 L163.091809,49.0545562 L87.8074544,14.0948469 L17.3855266,94.4809709 L92.6698807,129.44068 L92.6698807,129.44068 Z M167.411284,37.2811647 C175.507887,41.0408159 177.121054,49.7730833 171.011651,56.7468818 L105.946235,131.017715 C99.8362282,137.991514 88.2816315,140.609091 80.1844249,136.848839 L12.9459987,105.62475 C4.85361836,101.867502 3.24045115,93.1352345 9.3504577,86.161436 L74.4152708,11.8906027 C80.5252774,4.91620349 92.0798741,2.29922674 100.172858,6.05767636 L167.411284,37.2811647 Z" id="Fill-57" fill="#202227"></path>
                                    <path d="M74.7193921,12.47839 L9.64529915,86.780312 C3.53508118,93.7570296 5.14786015,102.492952 13.2413196,106.251773 L80.4893155,137.488932 C88.5869985,141.250758 100.143739,138.632085 106.254561,131.655367 L171.32805,57.3534452 C177.438872,50.3767276 175.825489,41.640805 167.727203,37.8795801 L100.47981,6.64302204 C92.386351,2.8829992 80.8302134,5.50167239 74.7193921,12.47839 M4.87481354,84.6496849 L69.9875755,10.294554 C70.2506549,9.99820342 70.4739104,9.75595339 70.7013896,9.51791117 C71.1044563,9.10434288 71.2800437,8.92941792 71.4592515,8.75689742 C71.908176,8.33070568 72.1151398,8.14375838 72.3233105,7.95921555 C72.7541332,7.58171426 73.0232466,7.35749773 73.2965837,7.13869125 C73.7177521,6.80807706 73.9295432,6.64577555 74.1443511,6.48647962 C74.6330996,6.13061853 74.8448906,5.9821427 75.0584918,5.83667246 C75.6039592,5.46818792 75.9038457,5.27342611 76.2085592,5.0858777 C76.542839,4.88149802 76.8342779,4.71017975 77.1281304,4.54246819 C77.6337739,4.26114557 77.859443,4.13911888 78.0875256,4.01889554 C78.6553186,3.72675282 78.9208116,3.59570938 79.1887181,3.46887376 C79.6828972,3.23564047 80.0117465,3.088968 80.3424059,2.94710445 C80.8432223,2.73851696 81.0936304,2.63752935 81.3452454,2.53894621 C81.9232961,2.31953861 82.1688771,2.23117446 82.4156649,2.14461365 C83.0462108,1.92761052 83.3877313,1.81640393 83.7316654,1.71241074 C84.1504203,1.58737847 84.4563407,1.50141878 84.7634678,1.41846467 C85.3457422,1.26818549 85.5943402,1.20747271 85.8429382,1.14916439 C86.462623,1.00910419 86.7534585,0.948391406 87.0455008,0.891886436 C87.5831241,0.787893246 87.9355058,0.728983808 88.287284,0.674282188 C88.8291311,0.5955359 89.0958308,0.560070014 89.3637374,0.528210829 C89.9635102,0.459683524 90.2223659,0.435037739 90.4800148,0.413397538 C91.13711,0.359898151 91.490095,0.338859066 91.8424766,0.324432265 C92.2968317,0.309404347 92.5967181,0.302190947 92.8960011,0.300387597 C93.48974,0.30158983 93.7341143,0.305797647 93.9784885,0.312409931 C94.6174819,0.334651249 94.9095242,0.352083634 95.2015665,0.372521602 C95.7144507,0.409189721 96.0553678,0.44225114 96.3944748,0.480722609 C97.028641,0.561272247 97.2518965,0.591328083 97.4739452,0.624990618 C97.6217765,0.647833053 97.7684011,0.673681072 97.9168358,0.698326856 C98.1256099,0.734393859 98.3343839,0.771061978 98.5419512,0.811336797 C98.6927994,0.840791516 98.8430444,0.872650701 98.9932893,0.904509887 C99.1960294,0.94779029 99.3981661,0.992874043 99.599096,1.04096338 C99.7499443,1.0776315 99.9001892,1.11429962 100.049831,1.15277109 C100.249554,1.20446712 100.447467,1.25976986 100.64538,1.31567371 C100.790798,1.35715077 100.935612,1.3980267 101.080426,1.44190822 C101.284373,1.50502548 101.48651,1.57114831 101.688043,1.63847339 C101.823807,1.68415825 101.960174,1.72803977 102.093523,1.77552799 C102.313159,1.85367317 102.529777,1.93722839 102.745791,2.02078361 C103.374527,2.27024704 103.662949,2.39588044 103.948957,2.52632276 L171.311773,33.8174529 C171.705788,34.0050013 171.981539,34.1414548 172.250049,34.2827172 C172.761123,34.5634387 172.953605,34.6698364 173.139451,34.7798408 C173.255905,34.8489692 173.36693,34.9199009 173.480368,34.9902316 C173.649318,35.0948259 173.817664,35.1994202 173.981184,35.3082223 C174.096432,35.3845642 174.209267,35.4633104 174.321498,35.5420567 C174.47657,35.6502577 174.629832,35.7584588 174.780077,35.8702665 C174.889894,35.9514172 174.998505,36.0343713 175.104702,36.1179265 C175.250723,36.2303354 175.393124,36.3457498 175.533111,36.4617653 C175.636292,36.5483261 175.739472,36.6336847 175.839635,36.7214477 C175.976605,36.8404688 176.108748,36.9612933 176.240288,37.0827189 C176.335021,37.1716841 176.43096,37.258846 176.52328,37.3490136 C176.659043,37.4812592 176.789979,37.6171116 176.920312,37.752964 C177.347515,38.2080093 177.533963,38.4196024 177.711964,38.6354033 C177.94065,38.9215349 178.086671,39.1108866 178.227262,39.3038451 C178.496979,39.6837508 178.6074,39.8472546 178.7142,40.0119606 C178.980297,40.4339445 179.101579,40.6389253 179.216827,40.8463106 C179.403275,41.183537 179.526971,41.4287926 179.644029,41.6764527 C179.811169,42.0461395 179.89323,42.2360924 179.970465,42.4272475 C180.137001,42.8576471 180.205185,43.0506055 180.270351,43.2447662 C180.416372,43.6950026 180.491797,43.9576906 180.55817,44.222182 C180.634801,44.5389705 180.685486,44.773406 180.73074,45.0090437 C180.807371,45.4448534 180.837541,45.6450252 180.86409,45.8470004 C180.922016,46.3296971 180.946755,46.5959918 180.96184,46.8652921 C180.978735,47.1538282 180.984165,47.4327463 180.983562,47.7134678 C180.976925,48.1282383 180.969081,48.3398314 180.957013,48.5514245 C180.923826,49.0184922 180.902104,49.2378998 180.876158,49.4579085 C180.817629,49.9237739 180.772978,50.2056977 180.719276,50.4894248 C180.648075,50.8470892 180.594373,51.088137 180.535241,51.3297859 C180.418183,51.783629 180.358447,51.9928176 180.29509,52.2026074 C180.133984,52.715961 180.039855,52.993677 179.935468,53.2713929 C179.827461,53.5587267 179.711006,53.8400493 179.588517,54.1213719 C179.391811,54.5571815 179.294664,54.7621623 179.192691,54.9671431 C178.94711,55.4498398 178.828242,55.6674441 178.705753,55.8856494 C178.448104,56.3376892 178.279757,56.6136018 178.102963,56.8889132 C177.850141,57.2712234 177.702913,57.4882266 177.549651,57.7040275 C177.220199,58.1578706 177.073574,58.3514302 176.922726,58.5443886 C176.523883,59.0475233 176.304248,59.3132169 176.073752,59.5759049 L110.995383,133.888958 C110.7673,134.149842 110.532581,134.404115 110.293033,134.655382 C109.905052,135.054523 109.713173,135.245077 109.51888,135.433227 C109.079006,135.852806 108.822564,136.08664 108.560088,136.315666 C108.222791,136.606005 107.989278,136.800767 107.752748,136.99072 C107.298996,137.350789 107.079361,137.519101 106.856709,137.68501 C106.386063,138.031854 106.100054,138.232627 105.810425,138.428591 C105.390464,138.706908 105.150313,138.861996 104.907146,139.013478 C104.396072,139.327261 104.136613,139.481146 103.874137,139.630824 C103.425816,139.885698 103.114465,140.052808 102.800097,140.216312 C102.318589,140.460967 102.073008,140.581791 101.825013,140.700211 C101.239722,140.97432 100.929578,141.114982 100.61521,141.24843 C100.24895,141.40472 99.9164808,141.538168 99.5834078,141.666807 C99.0590591,141.864574 98.7989966,141.958949 98.5377274,142.049718 C97.9379546,142.255901 97.599451,142.365905 97.2597406,142.469298 C96.8343484,142.595532 96.5338586,142.68029 96.232162,142.76144 C95.6541114,142.911719 95.3837912,142.977842 95.1128677,143.04096 C94.5281797,143.175009 94.1800218,143.247143 93.8306572,143.313867 C93.3461324,143.40163 93.0571071,143.450921 92.766875,143.497207 C92.1785666,143.58497 91.879887,143.625245 91.580604,143.660711 C91.0574621,143.722626 90.7044771,143.755687 90.3514921,143.784541 C89.8331773,143.82181 89.5538063,143.83804 89.2744352,143.851265 C88.6438894,143.875911 88.2993518,143.884326 87.9554177,143.885529 C87.5855377,143.886731 87.2313459,143.879517 86.8783609,143.868096 C86.3902158,143.848259 86.1548925,143.833832 85.9207759,143.818805 C85.7162256,143.804979 85.5116753,143.78935 85.3077284,143.771316 C85.1170562,143.754485 84.9251772,143.736452 84.7351083,143.716615 C84.5341784,143.694975 84.3338518,143.669728 84.1341287,143.64388 C83.9422497,143.619234 83.750974,143.593987 83.5609052,143.565133 C83.361182,143.534476 83.1638724,143.500213 82.9665629,143.46655 C82.7789076,143.433489 82.5906489,143.401028 82.4042004,143.36436 C82.2050807,143.325288 82.0077711,143.281406 81.8104615,143.238126 C81.6276334,143.197851 81.4448053,143.158177 81.2637873,143.114296 C81.0646676,143.065605 80.8679614,143.011505 80.6706518,142.958005 C80.4938576,142.910517 80.31646,142.864832 80.1408726,142.813136 C79.9405461,142.754227 79.7426331,142.688705 79.5435133,142.624386 C79.3763734,142.570886 79.2074233,142.519791 79.0408868,142.462084 C78.8260788,142.387546 78.6142878,142.304592 78.4024968,142.224042 C78.2558723,142.168739 78.1086443,142.117644 77.9644334,142.059336 C77.6850623,141.946326 77.4105184,141.824299 77.1365779,141.700469 L9.66696221,110.364255 C9.19390195,110.13523 8.92358181,110.003585 8.66291595,109.864727 C8.5349966,109.796801 8.41311117,109.724066 8.28820878,109.654337 C8.092106,109.544933 7.89539982,109.437333 7.70593436,109.323121 C7.57318786,109.243173 7.44707868,109.159016 7.31734915,109.076663 C7.1447787,108.966659 6.97039807,108.857857 6.80386155,108.743645 C6.67232183,108.654679 6.54681605,108.560905 6.4188967,108.468934 C6.26322126,108.357127 6.10694242,108.245319 5.95669752,108.130506 C5.83058834,108.033125 5.70930631,107.932738 5.58742089,107.833554 C5.4450201,107.716937 5.30201591,107.601523 5.16564905,107.483103 C5.04436702,107.378509 4.92911892,107.27151 4.81326743,107.164511 C4.68293451,107.044889 4.55260158,106.924666 4.42769919,106.802639 C4.31667484,106.693837 4.21047764,106.583832 4.10367705,106.473227 C3.98058484,106.34579 3.85930281,106.217752 3.74164114,106.08731 C3.64087448,105.976103 3.54312478,105.863094 3.44658187,105.750084 C3.33435074,105.617237 3.22392979,105.483789 3.1165258,105.34974 C3.00369127,105.206073 2.89085675,105.063007 2.78284937,104.916936 C2.49201385,104.514789 2.33573502,104.286966 2.18911047,104.054934 C2.02921128,103.79946 1.90008514,103.577648 1.77578614,103.354633 C1.56580531,102.965711 1.47227937,102.781168 1.38297718,102.595423 C1.18204725,102.169231 1.07645344,101.925779 0.979307139,101.680523 C0.847164031,101.331275 0.774756849,101.128097 0.707176812,100.923116 C0.568999773,100.488509 0.511074027,100.282326 0.456768641,100.074941 C0.351174833,99.6637769 0.295059267,99.4058978 0.245581026,99.1456143 C0.177397596,98.7500795 0.146021151,98.5456998 0.118868457,98.340719 C0.0645630707,97.8724491 0.0428409161,97.6404181 0.0283594797,97.4065837 C0.00603393185,97.0362958 0,96.7681977 0,96.4994986 C0.00603393185,96.0684979 0.0138780432,95.8617137 0.0253425138,95.6549296 C0.0597359253,95.1529971 0.0844750458,94.8800902 0.118868457,94.6059809 C0.158692408,94.3096304 0.201533324,94.0445379 0.250408172,93.7794455 C0.337900183,93.3334169 0.384361459,93.1254305 0.434443093,92.916843 C0.559345482,92.4143094 0.635976417,92.1408013 0.720451462,91.8666921 C0.836906347,91.5066232 0.91896782,91.2715866 1.00525305,91.0353477 C1.18144386,90.573089 1.27014265,90.3566869 1.36246181,90.1420883 C1.56520192,89.676824 1.69372467,89.4045181 1.83009153,89.1328133 C2.036452,88.7354752 2.15290688,88.5208765 2.27418891,88.3056767 C2.54812942,87.8313957 2.68751324,87.6005669 2.83353439,87.3715414 C3.08514935,86.9784111 3.26737409,86.7121164 3.45683955,86.4458217 C3.75853615,86.0334556 3.91119462,85.8308793 4.06807685,85.6301063 C4.45183492,85.1468085 4.65879878,84.897345 4.87481354,84.6496849 Z" id="Fill-65" fill="#FFFFFF"></path>
                                </g>
                            </g>
                        </g>
                    </g>
                </g>
            </g>
        </g>
    </g>
</svg>