<?xml version="1.0" encoding="UTF-8"?>
<svg width="40px" height="37px" viewBox="0 0 40 37" version="1.1" xmlns="http://www.w3.org/2000/svg" xmlns:xlink="http://www.w3.org/1999/xlink">
    <!-- Generator: Sketch 53 (72520) - https://sketchapp.com -->
    <title>Group</title>
    <desc>Created with Sketch.</desc>
    <g id="Finalized" stroke="none" stroke-width="1" fill="none" fill-rule="evenodd">
        <g id="homeFinal" transform="translate(-207.000000, -526.000000)" fill="#FFFFFF">
            <g id="Group" transform="translate(207.000000, 526.000000)">
                <path d="M40,-1.0658141e-14 L40,29 C36.4067705,29 35,17 33,17 C28.7522481,17 31.4223742,35.3409344 28,36.130713 C24.9223742,36.8409344 20,25.8424195 20,20 C20,8.954305 28.954305,-1.42108547e-14 40,-1.42108547e-14 Z" id="Combined-Shape-Copy" transform="translate(30.000000, 18.081755) scale(-1, 1) translate(-30.000000, -18.081755) "></path>
                <path d="M20,-1.0658141e-14 L20,29 C16.4067705,29 15,17 13,17 C8.7522481,17 11.4223742,35.3409344 8,36.130713 C4.92237424,36.8409344 -3.55271368e-15,25.8424195 -3.55271368e-15,20 C-3.55271368e-15,8.954305 8.954305,-1.42108547e-14 20,-1.42108547e-14 Z" id="Combined-Shape-Copy-2"></path>
            </g>
        </g>
    </g>
</svg>