<?xml version="1.0" encoding="UTF-8"?>
<svg width="40px" height="40px" viewBox="0 0 40 40" version="1.1" xmlns="http://www.w3.org/2000/svg" xmlns:xlink="http://www.w3.org/1999/xlink">
    <!-- Generator: Sketch 53 (72520) - https://sketchapp.com -->
    <title>Combined Shape</title>
    <desc>Created with Sketch.</desc>
    <g id="Finalized" stroke="none" stroke-width="1" fill="none" fill-rule="evenodd">
        <g id="homeFinal" transform="translate(-301.000000, -58.000000)" fill="#333333">
            <path d="M309.045455,87.0722788 L309.045455,87.0909091 L304.636364,87.0909091 L301,87.0909091 L301,61.6363636 L301,58 L341,58 L341,61.6363636 L341,94.3636364 L341,98 L301,98 L301,94.3636364 L337.363636,94.3636364 L337.363636,61.6363636 L304.636364,61.6363636 L304.636364,83.4545455 L307.532369,83.4545455 L312.224174,78.7538382 L312.219008,78.7486631 L314.780992,76.1818182 L314.786157,76.1869933 L314.791322,76.1818182 L317.353306,78.7486631 L317.34814,78.7538382 L320.545455,81.9572193 L326.309917,76.1818182 L328.871901,78.7486631 L334.636364,84.5240642 L332.07438,87.0909091 L326.309917,81.315508 L323.107438,84.5240642 L320.545455,87.0909091 L314.786157,81.3206831 L309.045455,87.0722788 Z" id="Combined-Shape"></path>
        </g>
    </g>
</svg>