<?xml version="1.0" encoding="UTF-8"?>
<svg width="40px" height="40px" viewBox="0 0 40 40" version="1.1" xmlns="http://www.w3.org/2000/svg" xmlns:xlink="http://www.w3.org/1999/xlink">
    <!-- Generator: Sketch 53 (72520) - https://sketchapp.com -->
    <title>logoBlack</title>
    <desc>Created with Sketch.</desc>
    <g id="Page-1" stroke="none" stroke-width="1" fill="none" fill-rule="evenodd">
        <g id="logoBlack" fill="#333333" fill-rule="nonzero">
            <polygon id="Path" points="36 0 4 0 4 0.011 0 0.011 0 28.011 3.982 28.011 4 28.011 9.657 28.011 9.657 28.011 9.657 28.011 14.586 23.082 19.515 28.011 19.516 28.009 19.518 28.011 24.355 23.173 29.14 27.958 31.969 25.13 24.357 17.518 24.342 17.533 24.341 17.531 19.516 22.355 14.586 17.425 11.758 20.254 8 24.011 4 24.011 4 4 36 4 36 36 0 36 0 40 36 40 40 40 40 0"></polygon>
        </g>
    </g>
</svg>