<?xml version="1.0" encoding="UTF-8"?>
<svg width="275px" height="206px" viewBox="0 0 275 206" version="1.1" xmlns="http://www.w3.org/2000/svg" xmlns:xlink="http://www.w3.org/1999/xlink">
    <!-- Generator: Sketch 55 (78076) - https://sketchapp.com -->
    <title>Group 6</title>
    <desc>Created with Sketch.</desc>
    <g id="Finalized" stroke="none" stroke-width="1" fill="none" fill-rule="evenodd">
        <g id="thankYou" transform="translate(-190.000000, -312.000000)">
            <g id="Group-6" transform="translate(190.000000, 312.000000)">
                <g id="Group-68">
                    <g id="Group-67">
                        <path d="M39.3290625,132.556006 C34.5092708,135.327642 29.0644792,138.524804 24.3884375,141.329733 C16.9426042,138.84837 11.0207292,133.530865 7.47697917,126.948228 C10.9363542,124.938168 14.4655208,123.051915 17.9238542,121.038733 C20.2165625,119.702855 21.4301042,118.902784 22.4051042,118.258774 C20.0280208,119.653956 17.8717708,120.904521 13.9540625,123.175723 C11.5686458,124.559461 11.5686458,124.559461 10.1269792,125.400107 C9.58739583,125.714309 8.8696875,126.133592 8.33010417,126.448834 C8.07385417,126.597612 7.77385417,126.948228 7.47697917,126.948228 C3.9540625,120.405127 2.78010417,112.612501 4.7946875,105.115349 L19.7342708,96.3416222 C15.6946875,111.379622 24.4790625,127.608885 39.3290625,132.556006" id="Fill-1" fill="#FEFEFE"></path>
                        <path d="M38.9915625,102.725229 C37.8332292,107.034583 40.3457292,111.668542 44.6009375,113.080371 L29.6603125,121.853058 C25.4051042,120.44227 22.8936458,115.80831 24.0509375,111.498957 L38.9915625,102.725229 Z" id="Fill-3" fill="#E1E1E1"></path>
                        <polygon id="Fill-5" fill="#E1E1E1" points="43.4244792 39.3834545 58.3640625 30.6097273 38.9911458 102.725333 24.0505208 111.499061"></polygon>
                        <path d="M36.344375,16.850696 L51.285,8.07696869 C45.5110417,11.4676455 41.0277083,17.0795848 39.1058333,24.2313222 L24.16625,33.0040091 C26.0870833,25.8533121 30.5704167,20.2413727 36.344375,16.850696" id="Fill-7" fill="#FEFEFE"></path>
                        <path d="M47.1486458,34.6468071 L62.0892708,25.8741202 C61.9330208,25.9646354 61.7861458,26.0686758 61.6330208,26.1654333 C61.4153125,26.3027667 61.1955208,26.434898 60.9913542,26.5961606 C60.8090625,26.7407768 60.6496875,26.906201 60.4819792,27.0674636 C60.2892708,27.2516152 60.0986458,27.4316051 59.9246875,27.6376051 C59.7746875,27.8144737 59.6476042,28.0111101 59.5142708,28.2035848 C59.3590625,28.4262313 59.2017708,28.6499182 59.0694792,28.8944131 C58.9559375,29.1056152 58.8632292,29.3282616 58.7663542,29.5529889 C58.6923958,29.7267364 58.5944792,29.8817566 58.5330208,30.0627869 C58.4705208,30.2417364 58.4142708,30.4238071 58.3642708,30.6100394 L43.4246875,39.3837667 C43.4746875,39.1975343 43.5309375,39.0144232 43.5923958,38.8365141 C43.6548958,38.6554838 43.7517708,38.5004636 43.8267708,38.3267162 C43.9226042,38.1019889 44.0153125,37.878302 44.1298958,37.6671 C44.2621875,37.4236455 44.4184375,37.1999586 44.5736458,36.9762717 C44.7069792,36.783797 44.8340625,36.5871606 44.9840625,36.4102919 C45.1580208,36.2053323 45.3486458,36.024302 45.5413542,35.8401505 C45.7090625,35.6799283 45.8694792,35.5134636 46.0507292,35.3698879 C46.2559375,35.2086253 46.4757292,35.0764939 46.6934375,34.9381202 C46.8455208,34.8413626 46.9934375,34.7383626 47.1486458,34.6468071" id="Fill-9" fill="#FEFEFE"></path>
                        <path d="M61.8346875,25.9984485 C63.6555208,24.9268323 65.9263542,24.632398 68.1607292,25.3731657 L53.2201042,34.1468929 C50.9867708,33.4050848 48.7148958,33.7005596 46.8940625,34.7721758 C51.3763542,32.1399535 57.3534375,28.6327515 61.8346875,25.9984485" id="Fill-11" fill="#FEFEFE"></path>
                        <polygon id="Fill-13" fill="#FEFEFE" points="53.220625 34.1463727 68.16125 25.3726455 88.5279167 32.1279889 73.5872917 40.9006758"></polygon>
                        <path d="M36.344375,16.8501758 L51.285,8.07644848 C57.6547917,4.33619596 65.5954167,3.30099394 73.3964583,5.88847879 L58.456875,14.6611657 C50.6547917,12.0736808 42.7141667,13.1088828 36.344375,16.8501758" id="Fill-15" fill="#FEFEFE"></path>
                        <polygon id="Fill-17" fill="#E1E1E1" points="73.5870833 40.9008838 88.5277083 32.128197 144.846458 88.2777626 129.905833 97.0514899"></polygon>
                        <path d="M129.90625,97.0511778 L144.846875,88.2774505 C145.561458,88.9922081 146.421875,89.5165717 147.336458,89.8203697 C148.246875,90.1220869 149.220833,90.2063596 150.166667,90.0430162 L135.226042,98.815703 C134.280208,98.9800869 133.307292,98.8947737 132.396875,98.5930566 C131.482292,98.2892586 130.621875,97.7659354 129.90625,97.0511778" id="Fill-19" fill="#EAEAEA"></path>
                        <polygon id="Fill-21" fill="#EAEAEA" points="29.66 121.853266 44.600625 113.079538 221.777708 171.84572 206.837083 180.618407"></polygon>
                        <path d="M216.579167,191.345909 C224.363542,193.915707 232.280208,192.883626 238.638542,189.156899 L223.697917,197.929586 C223.398958,198.105414 223.096875,198.27396 222.791667,198.436263 C227.757292,195.521051 232.722917,192.605838 237.689583,189.689586 C232.722917,192.605838 227.757292,195.521051 222.791667,198.436263 C222.773958,198.446667 222.75625,198.45603 222.7375,198.466434 C227.696875,195.554343 232.655208,192.642253 237.6125,189.730162 C234.80625,191.379202 232,193.027202 229.192708,194.675202 C228.902083,194.845828 228.513542,195.073677 228.222917,195.245343 C227.65,195.581394 226.8875,196.029808 226.313542,196.365859 C225.761458,196.690465 225.025,197.122232 224.473958,197.445798 C223.953125,197.751677 223.320833,198.307253 222.7375,198.466434 C216.554167,201.749949 209.035417,202.560424 201.638542,200.119636 C206.121875,197.486374 212.096875,193.977091 216.579167,191.345909" id="Fill-23" fill="#FEFEFE"></path>
                        <path d="M228.0975,171.223663 L213.156875,179.99739 C211.338125,181.065885 209.068333,181.359279 206.837083,180.618511 L221.777708,171.845824 C224.008958,172.586592 226.27875,172.292158 228.0975,171.223663" id="Fill-25" fill="#EAEAEA"></path>
                        <polygon id="Fill-27" fill="#EAEAEA" points="135.226458 98.8160152 150.167083 90.0422879 224.980625 77.3857727 210.04 86.1595"></polygon>
                        <polygon id="Fill-29" fill="#FEFEFE" points="210.040312 86.1595 224.980938 77.3857727 245.337187 84.1379949 230.396562 92.9106818"></polygon>
                        <path d="M230.396563,92.9108899 L245.337188,84.1371626 C249.410104,85.4886475 251.883021,89.7907182 251.076771,93.9273646 L236.136146,102.700052 C236.942396,98.5634051 234.469479,94.2623747 230.396563,92.9108899" id="Fill-31" fill="#FEFEFE"></path>
                        <path d="M230.396563,92.9108899 C234.469479,94.2623747 236.942396,98.5634051 236.136146,102.700052 L139.441354,119.062486 C135.333021,119.754355 131.116354,119.383971 127.159063,118.072021 C123.196563,116.757991 119.487188,114.498233 116.388229,111.416557 L43.5934375,38.8327687 C44.9632292,34.8833949 49.1528125,32.7963444 53.2205208,34.1467889 L73.5871875,40.9010919 L129.905938,97.0506576 C130.621563,97.7654152 131.481979,98.2897788 132.396563,98.5935768 C133.306979,98.8952939 134.280938,98.9795667 135.226771,98.8162232 L210.040313,86.1597081 L230.396563,92.9108899 Z" id="Fill-33" fill="#FEFEFE"></path>
                        <polygon id="Fill-35" fill="#EAEAEA" points="255.264271 109.652864 270.204896 100.880177 250.833021 172.990581 235.892396 181.764308"></polygon>
                        <polygon id="Fill-37" fill="#EAEAEA" points="235.634375 73.4267232 250.575 64.652996 264.057292 69.1256929 249.116667 77.8994202"></polygon>
                        <path d="M235.633333,73.4267232 L250.573958,64.652996 C265.444792,69.5855515 274.244792,85.8397838 270.204167,100.880905 L255.264583,109.652552 C259.305208,94.6114303 250.504167,78.3582384 235.633333,73.4267232" id="Fill-39" fill="#EAEAEA"></path>
                        <path d="M255.283646,109.578683 C259.274271,94.5573293 250.481563,78.3509556 235.634688,73.4267232 L249.116979,77.8994202 C256.560729,80.3672586 260.954479,88.4688848 258.928438,96.0118141 L255.283646,109.578683 Z" id="Fill-41" fill="#FEFEFE"></path>
                        <path d="M216.636146,175.377164 L236.009063,103.265719 C236.059063,103.079487 236.101771,102.891174 236.138229,102.702861 C236.179896,102.493739 236.175729,102.283578 236.199688,102.073416 C236.224688,101.855972 236.255938,101.638527 236.264271,101.421083 C236.275729,101.102719 236.254896,100.792679 236.230937,100.477436 C236.213229,100.268315 236.208021,100.057113 236.174688,99.8511131 C236.126771,99.5389919 236.048646,99.2372747 235.966354,98.931396 C235.911146,98.7274768 235.869479,98.5235576 235.798646,98.3238 C235.698646,98.0324869 235.565313,97.754699 235.435104,97.4758707 C235.343438,97.2823556 235.265313,97.082598 235.160104,96.8953253 C235.011146,96.6279414 234.829896,96.3834465 234.652813,96.1316687 C234.525729,95.9527192 234.413229,95.7664869 234.275729,95.596901 C234.079896,95.3596889 233.853854,95.1505677 233.633021,94.935204 C233.478854,94.7822646 233.340313,94.6189212 233.173646,94.4784667 C232.939271,94.2828707 232.674687,94.1174465 232.420521,93.9457798 C232.233021,93.8188505 232.062188,93.6763152 231.863229,93.5639515 C231.589271,93.4110121 231.288229,93.2996889 230.994479,93.1758808 C230.793437,93.0905677 230.606979,92.9802848 230.396563,92.9095374 L53.2215625,34.1454364 C52.9715625,34.062204 52.7226042,34.0351535 52.4705208,33.9779313 C52.2059375,33.9165475 51.9423958,33.8333152 51.6788542,33.8000222 C51.4080208,33.7656889 51.1455208,33.7812949 50.8788542,33.7760929 C50.6330208,33.7719313 50.3830208,33.7469616 50.1423958,33.7656889 C49.8903125,33.7854566 49.6507292,33.8458 49.4038542,33.8884566 C49.1569792,33.9311131 48.9059375,33.9602444 48.6653125,34.0278707 C48.4351042,34.0934162 48.2194792,34.1922545 47.9976042,34.2786081 C47.7590625,34.371204 47.5173958,34.4523556 47.2892708,34.5699212 C47.0819792,34.6760424 46.8903125,34.8133758 46.6923958,34.9382242 C46.4757292,35.076598 46.2559375,35.2076889 46.0507292,35.3699919 C45.8694792,35.5135677 45.7090625,35.6800323 45.5413542,35.8402545 C45.3486458,36.0244061 45.1580208,36.2054364 44.9840625,36.410396 C44.8340625,36.5872646 44.7069792,36.783901 44.5736458,36.9763758 C44.4184375,37.2000626 44.2621875,37.4237495 44.1298958,37.667204 C44.0153125,37.8784061 43.9226042,38.1020929 43.8267708,38.3257798 C43.7517708,38.5005677 43.6548958,38.6555879 43.5923958,38.8366182 C43.5309375,39.0145273 43.4746875,39.196598 43.4246875,39.3838707 L24.0507292,111.499477 C22.8934375,115.80779 25.4048958,120.441749 29.6601042,121.853578 L206.837188,180.618719 C211.092396,182.030547 215.479896,179.684436 216.636146,175.377164 L216.636146,175.377164 Z M235.633021,73.4269313 C250.504896,78.3584465 259.304896,94.6116384 255.264271,109.65276 L235.892396,181.764204 C231.848646,196.813648 216.472604,205.040123 201.600729,200.107568 L24.4257292,141.342426 C9.55177083,136.40883 0.750729167,120.165002 4.79447917,105.114517 L24.1663542,33.0041131 C28.2069792,17.9629919 43.5840625,9.72923434 58.4559375,14.6617899 L235.633021,73.4269313 Z" id="Fill-43" fill="#FEFEFE"></path>
                        <path d="M0.948125,119.516414 C0.968958333,119.419657 0.992916667,119.322899 1.01479167,119.228222 C1.05229167,119.072162 1.08666667,118.917141 1.12833333,118.762121 L4.79395833,105.115141 C0.753333333,120.152101 9.53979167,136.381364 24.38875,141.329525 L10.9377083,136.868273 C9.78875,136.487485 8.71270833,135.970404 7.72208333,135.345121 C7.5325,135.225475 7.37104167,135.114152 7.20958333,135.002828 C7.17625,134.979939 7.141875,134.959131 7.10958333,134.936242 C6.97729167,134.842606 6.84916667,134.745848 6.72,134.648051 C6.660625,134.603313 6.59916667,134.560657 6.53979167,134.513838 C6.42833333,134.426444 6.31895833,134.334889 6.20958333,134.244374 C6.13770833,134.186111 6.06479167,134.128889 5.995,134.067505 C5.87208333,133.963465 5.75333333,133.854222 5.635625,133.747061 C5.58145833,133.698162 5.52729167,133.651343 5.47520833,133.602444 C5.35958333,133.494242 5.24916667,133.381879 5.13666667,133.270556 C5.08354167,133.215414 5.02729167,133.163394 4.973125,133.108253 C4.87208333,133.003172 4.77416667,132.89497 4.67520833,132.786768 C4.61583333,132.722263 4.55541667,132.660879 4.49708333,132.594293 C4.40333333,132.488172 4.31270833,132.377889 4.22208333,132.269687 C4.16375,132.198939 4.10333333,132.131313 4.04708333,132.061606 C3.95958333,131.952364 3.87625,131.84104 3.79083333,131.729717 C3.73458333,131.654808 3.67520833,131.58302 3.62,131.507071 C3.54083333,131.398869 3.46583333,131.287545 3.38979167,131.177263 C3.3325,131.097152 3.27416667,131.018081 3.22,130.935889 C3.14916667,130.829768 3.08354167,130.721566 3.01479167,130.614404 C2.95854167,130.524929 2.90020833,130.435455 2.845,130.344939 C2.78354167,130.24298 2.72520833,130.136859 2.66479167,130.031778 C2.60958333,129.93502 2.55125,129.838263 2.49708333,129.739424 C2.43875,129.632263 2.38458333,129.520939 2.32729167,129.411697 C2.27833333,129.31598 2.22729167,129.220263 2.179375,129.122465 C2.12416667,129.009061 2.073125,128.893576 2.02,128.778091 C1.97520833,128.682374 1.929375,128.585616 1.88770833,128.488859 C1.83875,128.377535 1.795,128.264131 1.75125,128.152808 C1.70854167,128.048768 1.66479167,127.946808 1.62520833,127.841727 C1.58041667,127.726242 1.541875,127.608677 1.50020833,127.492152 C1.46479167,127.390192 1.42729167,127.290313 1.39395833,127.187313 C1.35541667,127.072869 1.32104167,126.956343 1.28666667,126.840859 C1.25333333,126.732657 1.21895833,126.624455 1.18875,126.516253 C1.1575,126.402848 1.13041667,126.289444 1.10125,126.17604 C1.073125,126.064717 1.04291667,125.953394 1.016875,125.842071 C0.990833333,125.726586 0.968958333,125.60798 0.943958333,125.491455 C0.922083333,125.380131 0.896041667,125.267768 0.87625,125.156444 C0.855416667,125.044081 0.839791667,124.931717 0.822083333,124.820394 C0.802291667,124.699707 0.7825,124.581101 0.765833333,124.461455 C0.753333333,124.355333 0.742916667,124.249212 0.730416667,124.143091 C0.715833333,124.016162 0.70125,123.890273 0.689791667,123.763343 C0.680416667,123.657222 0.67625,123.552141 0.668958333,123.44602 C0.661666667,123.31701 0.65125,123.18904 0.646041667,123.061071 C0.641875,122.953909 0.642916667,122.845707 0.640833333,122.738545 C0.63875,122.611616 0.635625,122.484687 0.636666667,122.356717 C0.637708333,122.247475 0.642916667,122.139273 0.647083333,122.02899 C0.65125,121.902061 0.654375,121.775131 0.661666667,121.647162 C0.666875,121.545202 0.677291667,121.443242 0.685625,121.341283 C0.697083333,121.20499 0.706458333,121.068697 0.721041667,120.932404 C0.731458333,120.837727 0.747083333,120.74201 0.758541667,120.645253 C0.777291667,120.504798 0.793958333,120.364343 0.816875,120.224929 C0.8325,120.126091 0.852291667,120.027253 0.87,119.928414 C0.895,119.791081 0.918958333,119.653747 0.948125,119.516414" id="Fill-45" fill="#FEFEFE"></path>
                        <path d="M33.924375,11.2757949 L48.865,2.50206768 C52.049375,0.632461616 56.011875,0.121623232 59.911875,1.41588586 L44.9722917,10.1896131 C41.07125,8.89535051 37.1097917,9.40618889 33.924375,11.2757949" id="Fill-47" fill="#EAEAEA"></path>
                        <polygon id="Fill-49" fill="#EAEAEA" points="44.9727083 10.189197 59.9122917 1.4154697 73.3977083 5.88816667 58.4570833 14.6618939"></polygon>
                        <path d="M58.4573958,14.6616859 C43.5855208,9.7291303 28.2063542,17.9628879 24.1657292,33.0040091 L27.8303125,19.3653525 C27.8740625,19.2040899 27.9230208,19.0469889 27.9709375,18.8878071 C27.9980208,18.8014535 28.0219792,18.7140596 28.0511458,18.6287465 C28.0990625,18.4768475 28.1542708,18.3291101 28.2084375,18.1803323 C28.2344792,18.107504 28.2605208,18.0325949 28.2876042,17.9597667 C28.3511458,17.7974636 28.4178125,17.6372414 28.4865625,17.4780596 C28.5094792,17.4239586 28.5313542,17.3688172 28.5542708,17.3147162 C28.6292708,17.1482515 28.7073958,16.9838677 28.7886458,16.8215646 C28.8094792,16.7757869 28.8313542,16.7300091 28.8532292,16.6852717 C28.9386458,16.5167263 29.0282292,16.3523424 29.1198958,16.188999 C29.1396875,16.1525848 29.1594792,16.1151303 29.1803125,16.0797566 C29.2803125,15.9028879 29.3865625,15.7301808 29.4938542,15.5605949 C29.6501042,15.3150596 29.7719792,15.1361101 29.8969792,14.9592414 C33.2042708,10.3419283 39.1573958,8.2600798 44.9730208,10.1889889 L58.4573958,14.6616859 Z" id="Fill-51" fill="#FEFEFE"></path>
                        <path d="M241.080729,194.718171 L226.140104,203.491898 C229.024479,201.79812 231.263021,198.99111 232.225521,195.410039 L247.166146,186.637353 C246.203646,190.218423 243.965104,193.024393 241.080729,194.718171" id="Fill-53" fill="#EAEAEA"></path>
                        <path d="M238.655625,189.147327 L223.715,197.921055 C229.486875,194.530378 233.970208,188.918438 235.893125,181.76358 L250.832708,172.990893 C248.910833,180.145752 244.4275,185.757691 238.655625,189.147327" id="Fill-55" fill="#FEFEFE"></path>
                        <polygon id="Fill-57" fill="#EAEAEA" points="235.871354 181.839009 250.811979 173.066322 247.166146 186.637353 232.225521 195.410039"></polygon>
                        <path d="M201.63875,200.119324 C216.474167,205.017546 231.800208,196.829567 235.871042,181.839425 L232.225208,195.410456 C230.202292,202.942981 222.529375,207.047375 215.085625,204.578496 L201.63875,200.119324 Z" id="Fill-59" fill="#FEFEFE"></path>
                        <polygon id="Fill-61" fill="#EAEAEA" points="58.4564583 14.6616859 73.3970833 5.88795859 250.574167 64.6531 235.633542 73.4268273"></polygon>
                        <polygon id="Fill-63" fill="#EAEAEA" points="258.928438 96.0118141 273.869063 87.2380869 270.224271 100.804956 255.283646 109.578683"></polygon>
                        <path d="M249.116979,77.8992121 L264.057604,69.1254848 C271.500313,71.5943636 275.895104,79.6959899 273.869062,87.2389192 L258.928438,96.0116061 C260.954479,88.4686768 256.560729,80.3670505 249.116979,77.8992121" id="Fill-65" fill="#EAEAEA"></path>
                    </g>
                </g>
                <g id="Group-68">
                    <g id="Group-67">
                        <path d="M39.3290625,132.556006 C34.5092708,135.327642 29.0644792,138.524804 24.3884375,141.329733 C16.9426042,138.84837 11.0207292,133.530865 7.47697917,126.948228 C10.9363542,124.938168 14.4655208,123.051915 17.9238542,121.038733 C20.2165625,119.702855 21.4301042,118.902784 22.4051042,118.258774 C20.0280208,119.653956 17.8717708,120.904521 13.9540625,123.175723 C11.5686458,124.559461 11.5686458,124.559461 10.1269792,125.400107 C9.58739583,125.714309 8.8696875,126.133592 8.33010417,126.448834 C8.07385417,126.597612 7.77385417,126.948228 7.47697917,126.948228 C3.9540625,120.405127 2.78010417,112.612501 4.7946875,105.115349 L19.7342708,96.3416222 C15.6946875,111.379622 24.4790625,127.608885 39.3290625,132.556006" id="Fill-1" fill="#FEFEFE"></path>
                        <path d="M38.9915625,102.725229 C37.8332292,107.034583 40.3457292,111.668542 44.6009375,113.080371 L29.6603125,121.853058 C25.4051042,120.44227 22.8936458,115.80831 24.0509375,111.498957 L38.9915625,102.725229 Z" id="Fill-3" fill="#E1E1E1"></path>
                        <polygon id="Fill-5" fill="#E1E1E1" points="43.4244792 39.3834545 58.3640625 30.6097273 38.9911458 102.725333 24.0505208 111.499061"></polygon>
                        <path d="M36.344375,16.850696 L51.285,8.07696869 C45.5110417,11.4676455 41.0277083,17.0795848 39.1058333,24.2313222 L24.16625,33.0040091 C26.0870833,25.8533121 30.5704167,20.2413727 36.344375,16.850696" id="Fill-7" fill="#FEFEFE"></path>
                        <path d="M47.1486458,34.6468071 L62.0892708,25.8741202 C61.9330208,25.9646354 61.7861458,26.0686758 61.6330208,26.1654333 C61.4153125,26.3027667 61.1955208,26.434898 60.9913542,26.5961606 C60.8090625,26.7407768 60.6496875,26.906201 60.4819792,27.0674636 C60.2892708,27.2516152 60.0986458,27.4316051 59.9246875,27.6376051 C59.7746875,27.8144737 59.6476042,28.0111101 59.5142708,28.2035848 C59.3590625,28.4262313 59.2017708,28.6499182 59.0694792,28.8944131 C58.9559375,29.1056152 58.8632292,29.3282616 58.7663542,29.5529889 C58.6923958,29.7267364 58.5944792,29.8817566 58.5330208,30.0627869 C58.4705208,30.2417364 58.4142708,30.4238071 58.3642708,30.6100394 L43.4246875,39.3837667 C43.4746875,39.1975343 43.5309375,39.0144232 43.5923958,38.8365141 C43.6548958,38.6554838 43.7517708,38.5004636 43.8267708,38.3267162 C43.9226042,38.1019889 44.0153125,37.878302 44.1298958,37.6671 C44.2621875,37.4236455 44.4184375,37.1999586 44.5736458,36.9762717 C44.7069792,36.783797 44.8340625,36.5871606 44.9840625,36.4102919 C45.1580208,36.2053323 45.3486458,36.024302 45.5413542,35.8401505 C45.7090625,35.6799283 45.8694792,35.5134636 46.0507292,35.3698879 C46.2559375,35.2086253 46.4757292,35.0764939 46.6934375,34.9381202 C46.8455208,34.8413626 46.9934375,34.7383626 47.1486458,34.6468071" id="Fill-9" fill="#FEFEFE"></path>
                        <path d="M61.8346875,25.9984485 C63.6555208,24.9268323 65.9263542,24.632398 68.1607292,25.3731657 L53.2201042,34.1468929 C50.9867708,33.4050848 48.7148958,33.7005596 46.8940625,34.7721758 C51.3763542,32.1399535 57.3534375,28.6327515 61.8346875,25.9984485" id="Fill-11" fill="#FEFEFE"></path>
                        <polygon id="Fill-13" fill="#FEFEFE" points="53.220625 34.1463727 68.16125 25.3726455 88.5279167 32.1279889 73.5872917 40.9006758"></polygon>
                        <path d="M36.344375,16.8501758 L51.285,8.07644848 C57.6547917,4.33619596 65.5954167,3.30099394 73.3964583,5.88847879 L58.456875,14.6611657 C50.6547917,12.0736808 42.7141667,13.1088828 36.344375,16.8501758" id="Fill-15" fill="#FEFEFE"></path>
                        <polygon id="Fill-17" fill="#E1E1E1" points="73.5870833 40.9008838 88.5277083 32.128197 144.846458 88.2777626 129.905833 97.0514899"></polygon>
                        <path d="M129.90625,97.0511778 L144.846875,88.2774505 C145.561458,88.9922081 146.421875,89.5165717 147.336458,89.8203697 C148.246875,90.1220869 149.220833,90.2063596 150.166667,90.0430162 L135.226042,98.815703 C134.280208,98.9800869 133.307292,98.8947737 132.396875,98.5930566 C131.482292,98.2892586 130.621875,97.7659354 129.90625,97.0511778" id="Fill-19" fill="#EAEAEA"></path>
                        <polygon id="Fill-21" fill="#EAEAEA" points="29.66 121.853266 44.600625 113.079538 221.777708 171.84572 206.837083 180.618407"></polygon>
                        <path d="M216.579167,191.345909 C224.363542,193.915707 232.280208,192.883626 238.638542,189.156899 L223.697917,197.929586 C223.398958,198.105414 223.096875,198.27396 222.791667,198.436263 C227.757292,195.521051 232.722917,192.605838 237.689583,189.689586 C232.722917,192.605838 227.757292,195.521051 222.791667,198.436263 C222.773958,198.446667 222.75625,198.45603 222.7375,198.466434 C227.696875,195.554343 232.655208,192.642253 237.6125,189.730162 C234.80625,191.379202 232,193.027202 229.192708,194.675202 C228.902083,194.845828 228.513542,195.073677 228.222917,195.245343 C227.65,195.581394 226.8875,196.029808 226.313542,196.365859 C225.761458,196.690465 225.025,197.122232 224.473958,197.445798 C223.953125,197.751677 223.320833,198.307253 222.7375,198.466434 C216.554167,201.749949 209.035417,202.560424 201.638542,200.119636 C206.121875,197.486374 212.096875,193.977091 216.579167,191.345909" id="Fill-23" fill="#FEFEFE"></path>
                        <path d="M228.0975,171.223663 L213.156875,179.99739 C211.338125,181.065885 209.068333,181.359279 206.837083,180.618511 L221.777708,171.845824 C224.008958,172.586592 226.27875,172.292158 228.0975,171.223663" id="Fill-25" fill="#EAEAEA"></path>
                        <polygon id="Fill-27" fill="#EAEAEA" points="135.226458 98.8160152 150.167083 90.0422879 224.980625 77.3857727 210.04 86.1595"></polygon>
                        <polygon id="Fill-29" fill="#FEFEFE" points="210.040313 86.1595 224.980938 77.3857727 245.337187 84.1379949 230.396562 92.9106818"></polygon>
                        <path d="M230.396563,92.9108899 L245.337188,84.1371626 C249.410104,85.4886475 251.883021,89.7907182 251.076771,93.9273646 L236.136146,102.700052 C236.942396,98.5634051 234.469479,94.2623747 230.396563,92.9108899" id="Fill-31" fill="#FEFEFE"></path>
                        <path d="M230.396563,92.9108899 C234.469479,94.2623747 236.942396,98.5634051 236.136146,102.700052 L139.441354,119.062486 C135.333021,119.754355 131.116354,119.383971 127.159063,118.072021 C123.196563,116.757991 119.487188,114.498233 116.388229,111.416557 L43.5934375,38.8327687 C44.9632292,34.8833949 49.1528125,32.7963444 53.2205208,34.1467889 L73.5871875,40.9010919 L129.905938,97.0506576 C130.621563,97.7654152 131.481979,98.2897788 132.396563,98.5935768 C133.306979,98.8952939 134.280938,98.9795667 135.226771,98.8162232 L210.040313,86.1597081 L230.396563,92.9108899 Z" id="Fill-33" fill="#FEFEFE"></path>
                        <polygon id="Fill-35" fill="#EAEAEA" points="255.264271 109.652864 270.204896 100.880177 250.833021 172.990581 235.892396 181.764308"></polygon>
                        <polygon id="Fill-37" fill="#EAEAEA" points="235.634375 73.4267232 250.575 64.652996 264.057292 69.1256929 249.116667 77.8994202"></polygon>
                        <path d="M235.633333,73.4267232 L250.573958,64.652996 C265.444792,69.5855515 274.244792,85.8397838 270.204167,100.880905 L255.264583,109.652552 C259.305208,94.6114303 250.504167,78.3582384 235.633333,73.4267232" id="Fill-39" fill="#EAEAEA"></path>
                        <path d="M255.283646,109.578683 C259.274271,94.5573293 250.481563,78.3509556 235.634688,73.4267232 L249.116979,77.8994202 C256.560729,80.3672586 260.954479,88.4688848 258.928438,96.0118141 L255.283646,109.578683 Z" id="Fill-41" fill="#FEFEFE"></path>
                        <path d="M216.636146,175.377164 L236.009063,103.265719 C236.059063,103.079487 236.101771,102.891174 236.138229,102.702861 C236.179896,102.493739 236.175729,102.283578 236.199688,102.073416 C236.224688,101.855972 236.255938,101.638527 236.264271,101.421083 C236.275729,101.102719 236.254896,100.792679 236.230937,100.477436 C236.213229,100.268315 236.208021,100.057113 236.174688,99.8511131 C236.126771,99.5389919 236.048646,99.2372747 235.966354,98.931396 C235.911146,98.7274768 235.869479,98.5235576 235.798646,98.3238 C235.698646,98.0324869 235.565313,97.754699 235.435104,97.4758707 C235.343438,97.2823556 235.265313,97.082598 235.160104,96.8953253 C235.011146,96.6279414 234.829896,96.3834465 234.652813,96.1316687 C234.525729,95.9527192 234.413229,95.7664869 234.275729,95.596901 C234.079896,95.3596889 233.853854,95.1505677 233.633021,94.935204 C233.478854,94.7822646 233.340313,94.6189212 233.173646,94.4784667 C232.939271,94.2828707 232.674687,94.1174465 232.420521,93.9457798 C232.233021,93.8188505 232.062188,93.6763152 231.863229,93.5639515 C231.589271,93.4110121 231.288229,93.2996889 230.994479,93.1758808 C230.793437,93.0905677 230.606979,92.9802848 230.396563,92.9095374 L53.2215625,34.1454364 C52.9715625,34.062204 52.7226042,34.0351535 52.4705208,33.9779313 C52.2059375,33.9165475 51.9423958,33.8333152 51.6788542,33.8000222 C51.4080208,33.7656889 51.1455208,33.7812949 50.8788542,33.7760929 C50.6330208,33.7719313 50.3830208,33.7469616 50.1423958,33.7656889 C49.8903125,33.7854566 49.6507292,33.8458 49.4038542,33.8884566 C49.1569792,33.9311131 48.9059375,33.9602444 48.6653125,34.0278707 C48.4351042,34.0934162 48.2194792,34.1922545 47.9976042,34.2786081 C47.7590625,34.371204 47.5173958,34.4523556 47.2892708,34.5699212 C47.0819792,34.6760424 46.8903125,34.8133758 46.6923958,34.9382242 C46.4757292,35.076598 46.2559375,35.2076889 46.0507292,35.3699919 C45.8694792,35.5135677 45.7090625,35.6800323 45.5413542,35.8402545 C45.3486458,36.0244061 45.1580208,36.2054364 44.9840625,36.410396 C44.8340625,36.5872646 44.7069792,36.783901 44.5736458,36.9763758 C44.4184375,37.2000626 44.2621875,37.4237495 44.1298958,37.667204 C44.0153125,37.8784061 43.9226042,38.1020929 43.8267708,38.3257798 C43.7517708,38.5005677 43.6548958,38.6555879 43.5923958,38.8366182 C43.5309375,39.0145273 43.4746875,39.196598 43.4246875,39.3838707 L24.0507292,111.499477 C22.8934375,115.80779 25.4048958,120.441749 29.6601042,121.853578 L206.837188,180.618719 C211.092396,182.030547 215.479896,179.684436 216.636146,175.377164 L216.636146,175.377164 Z M235.633021,73.4269313 C250.504896,78.3584465 259.304896,94.6116384 255.264271,109.65276 L235.892396,181.764204 C231.848646,196.813648 216.472604,205.040123 201.600729,200.107568 L24.4257292,141.342426 C9.55177083,136.40883 0.750729167,120.165002 4.79447917,105.114517 L24.1663542,33.0041131 C28.2069792,17.9629919 43.5840625,9.72923434 58.4559375,14.6617899 L235.633021,73.4269313 Z" id="Fill-43" fill="#FEFEFE"></path>
                        <path d="M0.948125,119.516414 C0.968958333,119.419657 0.992916667,119.322899 1.01479167,119.228222 C1.05229167,119.072162 1.08666667,118.917141 1.12833333,118.762121 L4.79395833,105.115141 C0.753333333,120.152101 9.53979167,136.381364 24.38875,141.329525 L10.9377083,136.868273 C9.78875,136.487485 8.71270833,135.970404 7.72208333,135.345121 C7.5325,135.225475 7.37104167,135.114152 7.20958333,135.002828 C7.17625,134.979939 7.141875,134.959131 7.10958333,134.936242 C6.97729167,134.842606 6.84916667,134.745848 6.72,134.648051 C6.660625,134.603313 6.59916667,134.560657 6.53979167,134.513838 C6.42833333,134.426444 6.31895833,134.334889 6.20958333,134.244374 C6.13770833,134.186111 6.06479167,134.128889 5.995,134.067505 C5.87208333,133.963465 5.75333333,133.854222 5.635625,133.747061 C5.58145833,133.698162 5.52729167,133.651343 5.47520833,133.602444 C5.35958333,133.494242 5.24916667,133.381879 5.13666667,133.270556 C5.08354167,133.215414 5.02729167,133.163394 4.973125,133.108253 C4.87208333,133.003172 4.77416667,132.89497 4.67520833,132.786768 C4.61583333,132.722263 4.55541667,132.660879 4.49708333,132.594293 C4.40333333,132.488172 4.31270833,132.377889 4.22208333,132.269687 C4.16375,132.198939 4.10333333,132.131313 4.04708333,132.061606 C3.95958333,131.952364 3.87625,131.84104 3.79083333,131.729717 C3.73458333,131.654808 3.67520833,131.58302 3.62,131.507071 C3.54083333,131.398869 3.46583333,131.287545 3.38979167,131.177263 C3.3325,131.097152 3.27416667,131.018081 3.22,130.935889 C3.14916667,130.829768 3.08354167,130.721566 3.01479167,130.614404 C2.95854167,130.524929 2.90020833,130.435455 2.845,130.344939 C2.78354167,130.24298 2.72520833,130.136859 2.66479167,130.031778 C2.60958333,129.93502 2.55125,129.838263 2.49708333,129.739424 C2.43875,129.632263 2.38458333,129.520939 2.32729167,129.411697 C2.27833333,129.31598 2.22729167,129.220263 2.179375,129.122465 C2.12416667,129.009061 2.073125,128.893576 2.02,128.778091 C1.97520833,128.682374 1.929375,128.585616 1.88770833,128.488859 C1.83875,128.377535 1.795,128.264131 1.75125,128.152808 C1.70854167,128.048768 1.66479167,127.946808 1.62520833,127.841727 C1.58041667,127.726242 1.541875,127.608677 1.50020833,127.492152 C1.46479167,127.390192 1.42729167,127.290313 1.39395833,127.187313 C1.35541667,127.072869 1.32104167,126.956343 1.28666667,126.840859 C1.25333333,126.732657 1.21895833,126.624455 1.18875,126.516253 C1.1575,126.402848 1.13041667,126.289444 1.10125,126.17604 C1.073125,126.064717 1.04291667,125.953394 1.016875,125.842071 C0.990833333,125.726586 0.968958333,125.60798 0.943958333,125.491455 C0.922083333,125.380131 0.896041667,125.267768 0.87625,125.156444 C0.855416667,125.044081 0.839791667,124.931717 0.822083333,124.820394 C0.802291667,124.699707 0.7825,124.581101 0.765833333,124.461455 C0.753333333,124.355333 0.742916667,124.249212 0.730416667,124.143091 C0.715833333,124.016162 0.70125,123.890273 0.689791667,123.763343 C0.680416667,123.657222 0.67625,123.552141 0.668958333,123.44602 C0.661666667,123.31701 0.65125,123.18904 0.646041667,123.061071 C0.641875,122.953909 0.642916667,122.845707 0.640833333,122.738545 C0.63875,122.611616 0.635625,122.484687 0.636666667,122.356717 C0.637708333,122.247475 0.642916667,122.139273 0.647083333,122.02899 C0.65125,121.902061 0.654375,121.775131 0.661666667,121.647162 C0.666875,121.545202 0.677291667,121.443242 0.685625,121.341283 C0.697083333,121.20499 0.706458333,121.068697 0.721041667,120.932404 C0.731458333,120.837727 0.747083333,120.74201 0.758541667,120.645253 C0.777291667,120.504798 0.793958333,120.364343 0.816875,120.224929 C0.8325,120.126091 0.852291667,120.027253 0.87,119.928414 C0.895,119.791081 0.918958333,119.653747 0.948125,119.516414" id="Fill-45" fill="#FEFEFE"></path>
                        <path d="M33.924375,11.2757949 L48.865,2.50206768 C52.049375,0.632461616 56.011875,0.121623232 59.911875,1.41588586 L44.9722917,10.1896131 C41.07125,8.89535051 37.1097917,9.40618889 33.924375,11.2757949" id="Fill-47" fill="#EAEAEA"></path>
                        <polygon id="Fill-49" fill="#EAEAEA" points="44.9727083 10.189197 59.9122917 1.4154697 73.3977083 5.88816667 58.4570833 14.6618939"></polygon>
                        <path d="M58.4573958,14.6616859 C43.5855208,9.7291303 28.2063542,17.9628879 24.1657292,33.0040091 L27.8303125,19.3653525 C27.8740625,19.2040899 27.9230208,19.0469889 27.9709375,18.8878071 C27.9980208,18.8014535 28.0219792,18.7140596 28.0511458,18.6287465 C28.0990625,18.4768475 28.1542708,18.3291101 28.2084375,18.1803323 C28.2344792,18.107504 28.2605208,18.0325949 28.2876042,17.9597667 C28.3511458,17.7974636 28.4178125,17.6372414 28.4865625,17.4780596 C28.5094792,17.4239586 28.5313542,17.3688172 28.5542708,17.3147162 C28.6292708,17.1482515 28.7073958,16.9838677 28.7886458,16.8215646 C28.8094792,16.7757869 28.8313542,16.7300091 28.8532292,16.6852717 C28.9386458,16.5167263 29.0282292,16.3523424 29.1198958,16.188999 C29.1396875,16.1525848 29.1594792,16.1151303 29.1803125,16.0797566 C29.2803125,15.9028879 29.3865625,15.7301808 29.4938542,15.5605949 C29.6501042,15.3150596 29.7719792,15.1361101 29.8969792,14.9592414 C33.2042708,10.3419283 39.1573958,8.2600798 44.9730208,10.1889889 L58.4573958,14.6616859 Z" id="Fill-51" fill="#FEFEFE"></path>
                        <path d="M241.080729,194.718171 L226.140104,203.491898 C229.024479,201.79812 231.263021,198.99111 232.225521,195.410039 L247.166146,186.637353 C246.203646,190.218423 243.965104,193.024393 241.080729,194.718171" id="Fill-53" fill="#EAEAEA"></path>
                        <path d="M238.655625,189.147327 L223.715,197.921055 C229.486875,194.530378 233.970208,188.918438 235.893125,181.76358 L250.832708,172.990893 C248.910833,180.145752 244.4275,185.757691 238.655625,189.147327" id="Fill-55" fill="#FEFEFE"></path>
                        <polygon id="Fill-57" fill="#EAEAEA" points="235.871354 181.839009 250.811979 173.066322 247.166146 186.637353 232.225521 195.410039"></polygon>
                        <path d="M201.63875,200.119324 C216.474167,205.017546 231.800208,196.829567 235.871042,181.839425 L232.225208,195.410456 C230.202292,202.942981 222.529375,207.047375 215.085625,204.578496 L201.63875,200.119324 Z" id="Fill-59" fill="#FEFEFE"></path>
                        <polygon id="Fill-61" fill="#EAEAEA" points="58.4564583 14.6616859 73.3970833 5.88795859 250.574167 64.6531 235.633542 73.4268273"></polygon>
                        <polygon id="Fill-63" fill="#EAEAEA" points="258.928438 96.0118141 273.869063 87.2380869 270.224271 100.804956 255.283646 109.578683"></polygon>
                        <path d="M249.116979,77.8992121 L264.057604,69.1254848 C271.500313,71.5943636 275.895104,79.6959899 273.869062,87.2389192 L258.928438,96.0116061 C260.954479,88.4686768 256.560729,80.3670505 249.116979,77.8992121" id="Fill-65" fill="#EAEAEA"></path>
                    </g>
                </g>
            </g>
        </g>
    </g>
</svg>