<?xml version="1.0" encoding="UTF-8"?>
<svg width="300px" height="414px" viewBox="0 0 300 414" version="1.1" xmlns="http://www.w3.org/2000/svg" xmlns:xlink="http://www.w3.org/1999/xlink">
    <!-- Generator: Sketch 53 (72520) - https://sketchapp.com -->
    <title>Group</title>
    <desc>Created with Sketch.</desc>
    <defs>
        <circle id="path-1" cx="150" cy="150" r="150"></circle>
        <path d="M68.8018475,376.945319 C72.1781307,373.373584 75.0956271,376.084736 79.8966856,374.557323 C82.0040357,373.886889 83.8016197,373.078076 85.2894375,372.130884 L85.2894296,372.130872 C85.7553213,371.834271 86.373444,371.971507 86.6700454,372.437399 C86.7089199,372.498462 86.7410494,372.563565 86.765869,372.631564 C87.2315219,373.907325 87.9591719,374.676651 88.9488192,374.939541 C92.1771741,375.797122 97.8928209,375.519566 99.1202291,375.210327 C99.4926835,375.116489 100.104087,374.411024 100.95444,373.093931 L100.954441,373.093932 C101.254002,372.629948 101.872977,372.496657 102.33696,372.796218 C102.552754,372.935541 102.706662,373.152558 102.76678,373.402285 C104.095896,378.923317 104.601236,382.349329 104.282802,383.680322 C103.548626,386.749028 93.7749413,386.438646 74.9617475,382.749175 C68.7454621,381.111752 66.6921621,379.177133 68.8018475,376.945319 Z" id="path-3"></path>
        <filter x="-52.2%" y="-80.1%" width="204.5%" height="376.1%" filterUnits="objectBoundingBox" id="filter-4">
            <feOffset dx="0" dy="8" in="SourceAlpha" result="shadowOffsetOuter1"></feOffset>
            <feGaussianBlur stdDeviation="5" in="shadowOffsetOuter1" result="shadowBlurOuter1"></feGaussianBlur>
            <feColorMatrix values="0 0 0 0 0   0 0 0 0 0   0 0 0 0 0  0 0 0 0.1 0" type="matrix" in="shadowBlurOuter1"></feColorMatrix>
        </filter>
        <path d="M158,299 C154.127855,299 148.381522,306.970708 140.761,322.912123 L140.761,322.912124 C140.260527,323.959066 139.85212,325.047579 139.540401,326.165342 L135.671515,340.038404 L129.31605,371.51731 L114.31605,373.51731 C116.462433,351.526026 118.634197,334.85936 120.831344,323.51731 C122.575359,314.514397 130.580539,303.323836 129.31605,301.51731 C128.854565,300.858004 124.705173,305.464661 116.867873,315.33728 L116.867873,315.33728 C115.189592,317.451405 113.956631,319.883379 113.243267,322.486696 L102,363.51731 L88,364.51731 L95.887924,314.268097 C96.1704413,312.46835 96.9392394,310.779972 98.1113025,309.385276 C107.344287,298.398497 112.640519,292.109175 114,290.51731 C124.178977,278.598378 161.106598,299 158,299 Z" id="path-5"></path>
        <filter x="-14.2%" y="-11.5%" width="157.0%" height="146.1%" filterUnits="objectBoundingBox" id="filter-6">
            <feOffset dx="10" dy="10" in="SourceAlpha" result="shadowOffsetOuter1"></feOffset>
            <feGaussianBlur stdDeviation="5" in="shadowOffsetOuter1" result="shadowBlurOuter1"></feGaussianBlur>
            <feColorMatrix values="0 0 0 0 0   0 0 0 0 0   0 0 0 0 0  0 0 0 0.1 0" type="matrix" in="shadowBlurOuter1"></feColorMatrix>
        </filter>
        <path d="M100.059889,384.750601 C103.436172,381.178866 106.353668,383.890018 111.154727,382.362605 C113.262077,381.692171 115.059661,380.883359 116.547479,379.936167 L116.547471,379.936154 C117.013362,379.639553 117.631485,379.77679 117.928086,380.242681 C117.966961,380.303744 117.99909,380.368847 118.02391,380.436847 C118.489563,381.712608 119.217213,382.481933 120.20686,382.744823 C123.435215,383.602404 129.150862,383.324848 130.37827,383.015609 C130.750725,382.921771 131.362128,382.216306 132.212481,380.899213 L132.212482,380.899214 C132.512043,380.43523 133.131018,380.30194 133.595001,380.601501 C133.810795,380.740823 133.964703,380.95784 134.024821,381.207567 C135.353937,386.728599 135.859277,390.154612 135.540843,391.485604 C134.806667,394.554311 125.032982,394.243928 106.219789,390.554457 C100.003503,388.917034 97.9502031,386.982416 100.059889,384.750601 Z" id="path-7"></path>
        <filter x="-55.0%" y="-72.8%" width="210.0%" height="390.7%" filterUnits="objectBoundingBox" id="filter-8">
            <feOffset dx="0" dy="10" in="SourceAlpha" result="shadowOffsetOuter1"></feOffset>
            <feGaussianBlur stdDeviation="5" in="shadowOffsetOuter1" result="shadowBlurOuter1"></feGaussianBlur>
            <feColorMatrix values="0 0 0 0 0   0 0 0 0 0   0 0 0 0 0  0 0 0 0.1 0" type="matrix" in="shadowBlurOuter1"></feColorMatrix>
        </filter>
        <path d="M31.5912123,21.322536 C39.244349,16.8256201 43.7428441,16.07691 45.0866976,19.0764056 C50.5683498,31.3115133 50.0541519,50.6581478 46.5860772,54.7912382 C43.953368,57.9287789 36.3323375,56.4705611 34.8458423,56.1725629 C25.5653077,54.3120911 14.9182653,48.534061 9.14359832,46.354485 C7.219144,45.6281238 8.59572492,42.4318547 13.2733411,36.7656778 L33.342313,44.6973888 C34.3695635,45.1033814 35.5314367,44.5997523 35.9374294,43.5725018 C36.0815335,43.2078866 36.1152947,42.8089585 36.0345157,42.4253116 L31.5912123,21.322536 Z" id="path-9"></path>
        <filter x="-39.1%" y="-35.4%" width="178.2%" height="181.0%" filterUnits="objectBoundingBox" id="filter-10">
            <feOffset dx="0" dy="2" in="SourceAlpha" result="shadowOffsetOuter1"></feOffset>
            <feGaussianBlur stdDeviation="5" in="shadowOffsetOuter1" result="shadowBlurOuter1"></feGaussianBlur>
            <feColorMatrix values="0 0 0 0 0   0 0 0 0 0   0 0 0 0 0  0 0 0 0.1 0" type="matrix" in="shadowBlurOuter1"></feColorMatrix>
        </filter>
        <path d="M93,40 C100.504818,25.3333333 105.268324,23.6666667 107.290518,35 C108.335219,40.854997 109.470863,53.5061541 110.69745,72.9534714 L110.697449,72.9534714 C110.900591,76.1742449 110.947704,79.402964 110.838622,82.6282933 L110.065093,105.5 C110.356724,110.992447 110.312805,114.492447 109.933337,116 C109.154886,119.092639 106.678404,121.144964 105.868244,122 C104.31182,123.642636 102.113955,125.192639 101.207394,126 C100.405367,126.714266 97.0697226,128.628728 95.8682439,128 C94.5037532,127.285969 95.3420961,123.864757 95.8682439,122 C96.7942623,118.718035 98.8951993,113.233736 99,112 C99.1912806,109.748205 99.1725993,100.993512 98.9439561,85.735923 L98.943956,85.735923 C98.8772196,81.2825354 98.5130348,76.8385811 97.8538344,72.4337462 L93,40 Z" id="path-11"></path>
        <filter x="-78.2%" y="-13.9%" width="278.8%" height="131.8%" filterUnits="objectBoundingBox" id="filter-12">
            <feOffset dx="2" dy="2" in="SourceAlpha" result="shadowOffsetOuter1"></feOffset>
            <feGaussianBlur stdDeviation="5" in="shadowOffsetOuter1" result="shadowBlurOuter1"></feGaussianBlur>
            <feColorMatrix values="0 0 0 0 0   0 0 0 0 0   0 0 0 0 0  0 0 0 0.1 0" type="matrix" in="shadowBlurOuter1"></feColorMatrix>
        </filter>
    </defs>
    <g id="Finalized" stroke="none" stroke-width="1" fill="none" fill-rule="evenodd">
        <g id="homeFinal" transform="translate(-730.000000, -135.000000)">
            <g id="aboveFold">
                <g id="Group" transform="translate(730.000000, 135.000000)">
                    <g id="circle">
                        <mask id="mask-2" fill="white">
                            <use xlink:href="#path-1"></use>
                        </mask>
                        <use id="Mask" fill="#E95B5C" fill-rule="nonzero" xlink:href="#path-1"></use>
                        <path d="M180.774711,292 L179.988723,295.227297 C179.383668,296.648417 178.942743,297.499396 178.665945,297.780234 C178.229466,298.223085 177.733154,297.613389 177.456508,297.780234 C176.916707,298.105788 176.349769,298.105788 175.755694,297.780234 C175.612943,299.450079 175.373589,299.835428 175.037635,298.936281 C174.909706,298.593892 174.974156,296.176906 177.456508,294.312094 C178.088482,293.837337 179.19455,293.066639 180.774711,292 Z" id="Rectangle" fill="#F1C6A2" fill-rule="nonzero" mask="url(#mask-2)"></path>
                        <path d="M176,273 C177,291 176,295 172,298.4 C170.856456,299.372012 168.643514,300.044202 164,301 C161.754287,301.462246 156.867636,301.211399 155,302 C154.257868,302.313362 149.673612,309.152026 141.247231,322.515993 L141.24723,322.515992 C140.21212,324.157642 139.421466,325.941213 138.900131,327.810618 L135.355464,340.521094 L129,372 L114,374 C116.146383,352.008716 118.318147,335.342049 120.515293,324 C122.259309,314.997087 130.264489,303.806526 129,302 C128.538515,301.340694 124.389123,305.947351 116.551823,315.81997 L116.551823,315.81997 C114.873542,317.934095 113.640581,320.366069 112.927217,322.969386 L101.68395,364 L87.6839497,365 L95.5718737,314.750787 C95.8543909,312.95104 96.6231891,311.262662 97.7952522,309.867966 C107.028237,298.881187 112.324469,292.591865 113.68395,291 C120.469934,283.054046 126.908618,277.054046 133,273 C161.008063,261.145131 175.341396,261.145131 176,273 Z" id="pants" fill="#464545" fill-rule="nonzero" mask="url(#mask-2)"></path>
                    </g>
                    <rect id="sock" fill="#FDCCA2" fill-rule="nonzero" transform="translate(121.979459, 370.979173) rotate(5.000000) translate(-121.979459, -370.979173) " x="115.979459" y="359.479173" width="12" height="23"></rect>
                    <rect id="sock" fill="#FDCCA2" fill-rule="nonzero" transform="translate(94.263753, 368.242585) rotate(8.000000) translate(-94.263753, -368.242585) " x="88.2637529" y="358.742585" width="12" height="19"></rect>
                    <g id="shoe" fill-rule="nonzero">
                        <use fill="black" fill-opacity="1" filter="url(#filter-4)" xlink:href="#path-3"></use>
                        <use fill="#FFFFFF" xlink:href="#path-3"></use>
                    </g>
                    <g id="pants-copy" fill-rule="nonzero">
                        <use fill="black" fill-opacity="1" filter="url(#filter-6)" xlink:href="#path-5"></use>
                        <use fill="#464545" xlink:href="#path-5"></use>
                    </g>
                    <rect id="cuff" fill="#504D4D" fill-rule="nonzero" transform="translate(121.729122, 371.729408) rotate(5.000000) translate(-121.729122, -371.729408) " x="113.229122" y="368.729408" width="17" height="6"></rect>
                    <rect id="cuff" fill="#504D4D" fill-rule="nonzero" transform="translate(94.839664, 365.084189) rotate(8.000000) translate(-94.839664, -365.084189) " x="86.8396639" y="362.084189" width="16" height="6"></rect>
                    <g id="shoe" fill-rule="nonzero" transform="translate(117.445602, 386.690506) rotate(-20.000000) translate(-117.445602, -386.690506) ">
                        <use fill="black" fill-opacity="1" filter="url(#filter-8)" xlink:href="#path-7"></use>
                        <use fill="#FFFFFF" xlink:href="#path-7"></use>
                    </g>
                    <g id="head" transform="translate(134.000000, 105.500000)" fill-rule="nonzero">
                        <path d="M5.06520657,8.8717722 C7.73572583,8.8717722 11.4683011,8.28285185 15,7 C20.8074416,4.89050895 26.903735,1.54605841 33,1 C36.0403814,0.727665088 40.2967886,4.32103529 42,5 C45.0268593,6.20662102 49.4096721,6.33808796 51.2451606,8.07461307 C55.7743436,12.3595976 57.060377,18.1081055 56.9978486,24.5811815 C56.9392696,30.6454102 54.2733201,38.7850164 49,49 L7,48 C6.53975974,44.3159689 6.32760062,40.4370484 6.36352262,36.3632384 C6.41724147,30.2711403 1.75205383,26.2422405 1.17025842,21.8351619 C0.23497907,14.7504555 1.17025842,8.8717722 5.06520657,8.8717722 Z" id="hair" fill="#653412"></path>
                        <path d="M6.34865439,31.1008971 L5.4903423,31.6731051 C4.12284078,27.9829192 1.58898312,25.0069859 1.17025842,21.8351619 C1.10005409,21.3033667 1.04038918,20.7783667 0.991724289,20.262138 C3.84230495,20.0389341 7.17839686,19.9582695 11,20.0201444 L11,28 L5,28 L4.76196293,27.7619629 C5.42390353,29.0007657 5.94878245,30.0855671 6.34865439,31.1008971 Z" id="darkHair" fill="#5B2E0F"></path>
                        <path d="M6.90489402,20.0312597 C15.2140275,19.8659136 21.2889246,20.3565086 25.1295854,21.5030447 C38.4317601,25.4740864 43.4292606,33.4110045 43.4292606,35.771368 C43.4292606,38.8903777 47.3972217,32.7944434 50,38 C52,42 46.7977176,43.6764628 46,46.7793087 C45.5713944,48.4464363 46.5713944,49.1866668 49,49 C45.3137042,58.8093104 41.2248098,64.7767288 36.7333169,66.9022551 C25.6542434,72.1452475 14.831573,69.7496786 11.0974785,66.9022551 C8.05117811,64.5793073 6.18835047,59.5101709 5.00487775,46.7793087 C4.59774139,42.3996582 4.57798158,34.1300331 4.94559832,21.9704336 L4.9455909,21.9704333 C4.9777929,20.9052927 5.83947764,20.0524607 6.90489402,20.0312597 Z" fill="#FDCCA2"></path>
                        <path d="M20,63 L38,63 L38,79 C35,79.6666667 32,80 29,80 C26,80 23,79.6666667 20,79 L20,63 Z" id="neck" fill="#FDCCA2"></path>
                        <path d="M20,69.8363816 C24.771931,70.3444341 30.7147913,69.7504251 36.7333169,66.9022551 C37.1656846,66.6976441 37.5879123,66.4686563 38,66.2152917 L38,68.5 C37.7919517,68.6110398 37.2128463,68.8992739 37,69 C31.3346073,71.6810555 25.2189338,72.1662183 20,71.5 L20,69.8363816 Z" id="neckShadow" fill="#F1C6A2"></path>
                    </g>
                    <g id="torso" transform="translate(81.000000, 180.000000)" fill-rule="nonzero">
                        <g id="arm" transform="translate(28.752459, 37.023269) rotate(50.000000) translate(-28.752459, -37.023269) ">
                            <use fill="black" fill-opacity="1" filter="url(#filter-10)" xlink:href="#path-9"></use>
                            <use fill="#FDCCA2" xlink:href="#path-9"></use>
                        </g>
                        <path d="M11.4717598,17.5775257 C11.9083799,17.4513937 11.7432835,8.4338531 12.0595977,4.818366 C12.1467534,3.8221713 12.6185183,3.86344538 13.1429481,3.90932705 C15.2068053,4.08989115 13.4717598,16.5775257 14.4717598,16.5775257 C15.4717598,16.5775257 17.3422047,4.57752571 19.3422047,5.57752571 C21.3422047,6.57752571 19.1756082,10.2309279 17.8590327,19.1739051 C17.8300961,19.3704599 19.4717598,18.8909106 19.4717598,21.5775257 C19.4717598,22.9250802 19.2277134,24.6052374 18.7396207,26.6179972 L18.7396157,26.617996 C18.2836835,28.4981346 16.6770705,29.8764471 14.7494633,30.0411458 L13.1653962,30.1764917 C10.3207587,30.4195434 7.76977925,28.4283997 7.31482304,25.6098804 C6.93760545,23.2732002 6.98993014,21.5957467 7.47175978,20.5775257 C7.66177848,20.1759709 7.98386374,19.8018016 8.33919554,19.470891 C8.71895316,19.1172333 9.13668522,19.4093653 9.47175978,19.1739051 C9.83315016,18.9199524 9.47175978,18.5775257 10.4485176,17.9862939 C11.0224735,17.6388782 11.4168359,17.5933923 11.4717598,17.5775257 Z" id="hand" fill="#FDCCA2" transform="translate(13.609850, 17.043571) rotate(-5.000000) translate(-13.609850, -17.043571) "></path>
                        <path d="M50.9236045,6.91053483 C52.337818,4.08210771 57.3825128,3.40048083 59.2740032,3.86691399 C63.7805894,4.97821825 66.7310004,6.61918342 68.125236,8.78980949 C72.8636465,16.1668388 72.0096403,31.4112688 71.125236,38.7898095 C71.1083763,38.9304695 64.842017,39.2308441 52.3261581,39.6909332 L52.3261575,39.6909164 C51.4077086,39.724679 50.5844721,39.1281386 50.3305497,38.2448426 C46.6619529,25.4832375 46.8596378,15.0384682 50.9236045,6.91053483 Z" id="sleeve" fill="#F1EEEE" transform="translate(59.768022, 21.739873) rotate(45.000000) translate(-59.768022, -21.739873) "></path>
                        <path d="M58,10.0422762 C59.7016599,5.67714866 64.7016599,3.66305659 73,4 C76.9988954,4.66666667 79.9988954,5 82,5 C84.0011046,5 87.0011046,4.66666667 91,4 C99.2526614,4.94650965 104.368702,6.96060172 106.348122,10.0422762 C109.507062,14.9602957 107.057688,16.8342774 99,15.664221 L95.5,40 C95.5,48.6666667 95.5,56 95.5,62 C95.5,68 95.3333333,78.3474254 95,93.0422762 L52,93 C50.0349932,52.9963899 52.0349932,25.3438153 58,10.0422762 Z" fill="#FAF8F8"></path>
                        <g id="arm">
                            <use fill="black" fill-opacity="1" filter="url(#filter-12)" xlink:href="#path-11"></use>
                            <use fill="#FDCCA2" xlink:href="#path-11"></use>
                        </g>
                        <path d="M89,10 C91.9799798,4.04004035 96.0482073,4.73072944 98.0721159,5.26634092 C102.255436,6.37342384 105.665983,8.92312607 107,11 C110.032999,15.7219471 110.768482,25.1287337 109.206447,39.2203599 L109.206435,39.2203585 C109.094136,40.2334437 108.237913,41 107.218623,41 L91.7100961,41.0000169 C90.7233661,41.0000169 89.8840854,40.2803862 89.733505,39.3052136 C87.3131896,23.6310288 87.0686879,13.8626242 89,10 Z" id="sleeve" fill="#F1EEEE"></path>
                    </g>
                </g>
            </g>
        </g>
    </g>
</svg>