<?xml version="1.0" encoding="UTF-8"?>
<svg width="60px" height="60px" viewBox="0 0 60 60" version="1.1" xmlns="http://www.w3.org/2000/svg" xmlns:xlink="http://www.w3.org/1999/xlink">
    <!-- Generator: Sketch 53.2 (72643) - https://sketchapp.com -->
    <title>Combined Shape</title>
    <desc>Created with Sketch.</desc>
    <g id="Scraps" stroke="none" stroke-width="1" fill="none" fill-rule="evenodd">
        <g id="Custom-Preset" transform="translate(-94.000000, -104.000000)" fill="#9CA5B0">
            <path d="M124,164 C107.431458,164 94,150.568542 94,134 C94,117.431458 107.431458,104 124,104 C140.568542,104 154,117.431458 154,134 C154,150.568542 140.568542,164 124,164 Z M131.8,132.2 C133.456854,132.2 134.8,129.513708 134.8,126.2 C134.8,122.886292 133.456854,120.2 131.8,120.2 C130.143146,120.2 128.8,122.886292 128.8,126.2 C128.8,129.513708 130.143146,132.2 131.8,132.2 Z M116.8,132.2 C118.456854,132.2 119.8,129.513708 119.8,126.2 C119.8,122.886292 118.456854,120.2 116.8,120.2 C115.143146,120.2 113.8,122.886292 113.8,126.2 C113.8,129.513708 115.143146,132.2 116.8,132.2 Z M124,155.545519 C130.627417,155.545519 136,150.172936 136,143.545519 C136,136.918102 130.627417,143.545519 124,143.545519 C117.372583,143.545519 112,136.918102 112,143.545519 C112,150.172936 117.372583,155.545519 124,155.545519 Z" id="Combined-Shape"></path>
        </g>
    </g>
</svg>