<?xml version="1.0" standalone="no"?>
<!DOCTYPE svg PUBLIC "-//W3C//DTD SVG 20010904//EN"
 "http://www.w3.org/TR/2001/REC-SVG-20010904/DTD/svg10.dtd">
<svg version="1.0" xmlns="http://www.w3.org/2000/svg"
 width="700.000000pt" height="700.000000pt" viewBox="0 0 700.000000 700.000000"
 preserveAspectRatio="xMidYMid meet">
<metadata>
Created by potrace 1.11, written by Peter Selinger 2001-2013
</metadata>
<g transform="translate(0.000000,700.000000) scale(0.100000,-0.100000)"
fill="#000000" stroke="none">
<path d="M0 4550 l0 -2450 847 0 848 0 430 430 430 430 430 -430 430 -430 422
422 423 423 420 -420 420 -420 247 248 248 247 -667 667 -668 668 -423 -423
-422 -422 -430 430 -430 430 -575 -575 -575 -575 -353 0 -352 0 0 1750 0 1750
2800 0 2800 0 0 -2800 0 -2800 -3150 0 -3150 0 0 -350 0 -350 3500 0 3500 0 0
3500 0 3500 -3500 0 -3500 0 0 -2450z"/>
</g>
</svg>
